<svg width="928" height="764" viewBox="0 0 928 764" fill="none" xmlns="http://www.w3.org/2000/svg">
<g filter="url(#filter0_i_85_11)">
<path d="M109 657C109 657 172 585.5 183.5 569C195 552.5 218.5 509.5 222.5 501C226.5 492.5 246 442 246.5 440.5C247 439 262 391 264.5 384.5C267 378 274.5 356.5 285.5 331.5C296.5 306.5 319 271.5 319 271.5C319 271.5 332.5 252 351 230C369.5 208 397.5 186 397.5 186C397.5 186 448.5 148 482.5 130.5C516.5 113 575 88.5 590 82.5C605 76.5 704 45 721.5 40C739 35 928 0 928 0V764H0C0 764 52 713 64 704C76 695 109 657 109 657Z" fill="#BBCFDF"/>
</g>
<path d="M183.184 569L304.807 643.962L351.353 618.485L480.5 692.5L438.942 717.5V727.744L497 764L0 760.57C0 760.57 67.9664 705.307 103.604 663.56C139.242 621.813 183.184 569 183.184 569Z" fill="#417DA7"/>
<rect x="650.939" y="640.915" width="15" height="16.9105" transform="rotate(33.9321 650.939 640.915)" fill="#18435F"/>
<rect x="726.439" y="595.915" width="15" height="16.9105" transform="rotate(33.9321 726.439 595.915)" fill="#18435F"/>
<rect x="691.873" y="619.5" width="15" height="15" transform="rotate(33.9321 691.873 619.5)" fill="#18435F"/>
<rect x="767.373" y="574.5" width="15" height="15" transform="rotate(33.9321 767.373 574.5)" fill="#18435F"/>
<rect x="367.92" y="248.256" width="10" height="7.14761" transform="rotate(-32.549 367.92 248.256)" fill="#4B667A"/>
<rect x="334" y="228.38" width="10" height="7.14761" transform="rotate(-32.549 334 228.38)" fill="#4B667A"/>
<path d="M331.803 210.469L360.07 225.935L346.542 238.344L325.981 218.507L325.525 216.559L331.803 210.469Z" fill="#18435F"/>
<path d="M394 200L403.5 206.5L393 212.5L390.5 203.5L394 200Z" fill="#18435F"/>
<path d="M417.5 217.5L409 217L401.5 215.5L409 209.5L420 215.5L417.5 217.5Z" fill="#18435F"/>
<path d="M377.255 241.152C354.505 255.1 333.475 262.184 330.282 256.976C327.089 251.768 342.942 236.239 365.691 222.291C388.441 208.344 410.304 203.458 412.001 205.265C413.698 207.072 400.004 227.204 377.255 241.152Z" fill="#457496"/>
<path d="M280.5 498.472L382.5 439V442.024L280.5 502V498.472Z" fill="#18435F"/>
<path d="M373 456.5L375.5 458L363.5 465L360.5 463.5L373 456.5Z" fill="#BBCFDF"/>
<path d="M360 449L362.5 450.5L350.5 457.5L347.5 456L360 449Z" fill="#BBCFDF"/>
<path d="M344.5 419L368.5 432.827V459L344.5 443.198V419Z" fill="#4B667A"/>
<path d="M344.5 418.835L392.831 390L417.5 405.176L368.162 433L344.5 418.835Z" fill="#96AEC2"/>
<path d="M290.93 450L314.5 463.843C314.5 463.843 311.491 472.742 310.99 474.225C310.488 475.708 309.987 480.652 309.987 480.652L309.572 494L285.5 479V467.5C285.5 467.5 286.39 460.472 287.393 458C288.396 455.528 290.93 450 290.93 450Z" fill="#4B667A"/>
<path d="M314.5 463.5L363.5 436V462L309.5 494L310 481C310 481 310.5 475.5 311 473.5C311.5 471.5 314.5 463.5 314.5 463.5Z" fill="#457496"/>
<path d="M368.5 432.5L424.5 400V426L368.5 459V447C368.5 447 368.5 443 368.5 439C368.5 435 368.5 432.5 368.5 432.5Z" fill="#457496"/>
<path d="M293.5 505.5L395.5 446V449L293.5 509V505.5Z" fill="#18435F"/>
<path d="M303 497.5L305.5 499L293.5 506L290.5 504.5L303 497.5Z" fill="#BBCFDF"/>
<path d="M290 490L292.5 491.5L280.5 498.5L277.5 497L290 490Z" fill="#BBCFDF"/>
<path d="M291 455L311.5 467C309.615 474.458 308.941 478.337 308.5 485L287.5 472.5C287.5 472.5 287.5 467 288.5 463C289.5 459 291 455 291 455Z" fill="white"/>
<path d="M285.5 479L309.5 493.5V502L285.5 487.689V479Z" fill="#96AEC2"/>
<path d="M290.579 478.074C290.579 479.22 290.686 480.148 289.553 480.148C288.421 480.148 287.503 479.22 287.503 478.074C287.503 476.929 287.396 476 288.528 476C289.661 476 290.579 476.929 290.579 478.074Z" fill="white"/>
<path d="M307.497 487.926C307.497 489.071 307.604 490 306.472 490C305.339 490 304.421 489.071 304.421 487.926C304.421 486.78 304.314 485.852 305.447 485.852C306.579 485.852 307.497 486.78 307.497 487.926Z" fill="white"/>
<line x1="293" y1="478" x2="293" y2="481" stroke="black"/>
<line x1="295" y1="479" x2="295" y2="482" stroke="black"/>
<line x1="297" y1="480" x2="297" y2="483" stroke="black"/>
<line x1="299" y1="481" x2="299" y2="484" stroke="black"/>
<line x1="301" y1="482" x2="301" y2="485" stroke="black"/>
<line x1="323.276" y1="477.553" x2="327.276" y2="475.553" stroke="black"/>
<path d="M317 465.5L326.5 460V473L313.5 480C313.5 480 313.5 475 314.5 472C315.5 469 317 465.5 317 465.5Z" fill="#18435F"/>
<line x1="335.256" y1="456.564" x2="360.256" y2="442.564" stroke="black"/>
<line x1="335.256" y1="462.564" x2="360.256" y2="448.564" stroke="black"/>
<line x1="335.256" y1="468.564" x2="360.256" y2="454.564" stroke="black"/>
<path d="M290.5 450L339 421L363.5 436L314 464L290.5 450Z" fill="#96AEC2"/>
<path d="M368.5 458L423.5 425V433L368.5 466V458Z" fill="#4B667A"/>
<path d="M309.5 494L364.5 461V469L309.5 502V494Z" fill="#4B667A"/>
<path d="M290.5 504.2L293.5 505.64V509L290.5 507.56V504.2Z" fill="#96AEC2"/>
<path d="M277.5 497L280.5 498.44V501.8L277.5 500.36V497Z" fill="#96AEC2"/>
<path d="M500.5 147H533.501L566.5 224.857L548.9 256L500.5 147Z" fill="#4B667A"/>
<path d="M640.5 145H606.85L557.5 274H582.176L640.5 145Z" fill="#4B667A"/>
<path d="M650.045 256.93C650.045 261.545 647.575 264.535 643.09 264.535C641.27 264.535 640.295 264.405 638.41 263.885V249.26H641.66C647.185 249.26 650.045 251.47 650.045 256.93ZM659.6 256.54C659.6 247.115 653.035 243.02 642.635 243.02H629.375V288H638.41V269.93C641.335 270.645 643.025 270.905 645.625 270.905C654.01 270.905 659.6 264.535 659.6 256.54ZM692.776 288L693.621 281.435H675.226V243.02H666.191V288H692.776ZM728.641 243.02V268.435C728.641 277.99 724.936 281.89 718.371 281.89C711.481 281.89 707.841 278.055 707.841 268.565V243.02H698.806V269.54C698.806 282.02 705.371 288.65 717.656 288.65C729.616 288.65 737.156 282.345 737.156 270.19V243.02H728.641ZM744.282 285.53C748.767 287.805 753.252 288.65 757.997 288.65C767.487 288.65 773.402 283.84 773.402 275.585C773.402 267.33 767.812 264.535 762.482 261.74C756.957 258.815 753.967 257.19 753.967 253.68C753.967 250.495 756.307 248.805 760.532 248.805C763.327 248.805 766.382 249.78 769.242 251.08L771.712 244.84C768.137 243.15 763.847 242.37 759.882 242.37C751.432 242.37 744.607 246.595 744.607 254.85C744.607 262.975 750.847 266.225 755.982 268.955C761.637 271.945 764.042 273.7 764.042 276.95C764.042 280.59 761.507 282.345 757.802 282.345C754.162 282.345 750.327 280.98 746.817 279.16L744.282 285.53Z" fill="#4B667A"/>
<line x1="438.554" y1="716.916" x2="512.054" y2="763.916" stroke="#18435F" stroke-width="0.2"/>
<line x1="438.55" y1="729.914" x2="497.05" y2="763.914" stroke="#18435F" stroke-width="0.2"/>
<path d="M476.812 452.246V502.844L412.398 464.81L412.346 464.779L412.295 464.811L391.065 477.85L380.705 471.736V396.086L476.812 452.246Z" fill="#96AEC2" stroke="#18435F" stroke-width="0.2"/>
<path d="M518.016 454.399L517.966 454.428V454.485V480.67L477.012 502.851V452.745L609.524 375.063L610.02 400.501L518.016 454.399Z" fill="#457496" stroke="#18435F" stroke-width="0.2"/>
<path d="M535.316 300.999V378.634L473.843 341.782L473.792 341.751L473.74 341.782L461.71 349.034L461.459 258.296L535.316 300.999Z" fill="#96AEC2" stroke="#18435F" stroke-width="0.2"/>
<path d="M476.959 452.5L380.802 396.266L473.711 341.125L535.73 378.175L535.78 378.206L535.831 378.176L576.558 354.576L609.926 375.179L476.959 452.5Z" fill="#F9FAFE" stroke="#18435F" stroke-width="0.2"/>
<path d="M409.83 592.909L300.699 529.398L412.002 464.432L476.754 502.579L476.803 502.608L476.852 502.58L518.074 480.065L561.317 504.675L409.83 592.909Z" fill="#F9FAFE" stroke="#18435F" stroke-width="0.2"/>
<path d="M375.609 598.673V598.615L375.559 598.586L300.6 555.282V529.295L409.9 592.979L409.418 624.249L375.609 605.896V598.673Z" fill="#96AEC2" stroke="#18435F" stroke-width="0.2"/>
<path d="M541.908 542.461L541.86 542.49V542.546V547.567L409.617 624.725L409.869 593.026L561.417 504.994V530.519L541.908 542.461Z" fill="#457496" stroke="#18435F" stroke-width="0.2"/>
<path d="M661.889 588.354L661.525 538.018L770.232 475.29V527.067L661.889 588.354Z" fill="#457496" stroke="#18435F" stroke-width="0.2"/>
<path d="M560.979 504.664V504.606L560.928 504.578L517.663 479.874V454.04L661.488 537.82L661.847 588.871L560.979 530.43V504.664Z" fill="#96AEC2" stroke="#18435F" stroke-width="0.2"/>
<path d="M661.464 538.056L517.76 454.192L610.57 399.232L649.299 422.942L649.349 422.973L649.401 422.944L666.308 413.282L770.282 475.095L661.464 538.056Z" fill="#F9FAFE" stroke="#18435F" stroke-width="0.2"/>
<path d="M609.089 374.772V374.715L609.041 374.686L575.805 354.539V328.549L650.22 371.205L649.856 423.165L609.089 398.638V374.772Z" fill="#96AEC2" stroke="#18435F" stroke-width="0.2"/>
<path d="M666.248 413.827L666.198 413.798L666.148 413.827L649.824 423.102L650.181 371.489L717.67 333.08L718.028 433.659L709.174 438.999L666.248 413.827Z" fill="#457496" stroke="#18435F" stroke-width="0.2"/>
<path d="M576.048 329.327L575.998 329.356V329.414V355.421L535.516 378.638V301.347L609.036 259.263L609.12 310.246L576.048 329.327Z" fill="#457496" stroke="#18435F" stroke-width="0.2"/>
<path d="M650.171 371.496L576.389 328.861L608.702 310.052L608.752 310.023V309.965V295.972L632.191 282.62L717.928 332.852L650.171 371.496Z" fill="white" stroke="#18435F" stroke-width="0.2"/>
<path d="M461.555 258.124L535.669 215.116L608.942 259.091L535.67 303.065L461.555 258.124Z" fill="#F9FAFE" stroke="#18435F" stroke-width="0.2"/>
<path d="M734.429 433.046V397.883L773.831 420.161V456.042L734.429 433.046Z" fill="#96AEC2" stroke="#18435F" stroke-width="0.2"/>
<path d="M774.032 456.044V420.745L806.234 402.385V437.683L774.032 456.044Z" fill="#64829F" stroke="#18435F" stroke-width="0.2"/>
<path d="M774.009 420.998L735.653 398.509L767.019 381.625L804.335 403.348L774.009 420.998Z" fill="white" stroke="#18435F" stroke-width="0.2"/>
<path d="M766.631 381.771L735.467 398.948L734.479 397.96L766.631 379.881V381.771Z" fill="#64829F" stroke="#18435F" stroke-width="0.2"/>
<path d="M766.831 381.813V379.883L806.123 402.468L804.069 403.495L766.831 381.813Z" fill="#96AEC2" stroke="#18435F" stroke-width="0.2"/>
<path d="M410.675 663.208C410.739 663.131 410.739 663.131 410.739 663.131L410.738 663.13L410.736 663.128L410.726 663.121L410.69 663.09L410.548 662.972L410.436 662.879C410.322 662.784 410.177 662.664 410.006 662.521C409.537 662.13 408.865 661.569 408.051 660.887C406.422 659.522 404.224 657.673 401.948 655.733C399.671 653.794 397.316 651.764 395.372 650.039C393.426 648.313 391.899 646.896 391.272 646.18C390.634 645.45 389.319 644.339 387.651 643.054C385.981 641.767 383.951 640.3 381.876 638.856C377.728 635.968 373.396 633.169 371.407 632.083C369.419 630.998 363.451 628.197 357.983 625.668C355.249 624.403 352.638 623.206 350.712 622.325C349.748 621.885 348.956 621.523 348.404 621.272L347.766 620.981L347.719 620.96L376.088 604.612L410.627 623.597L410.676 623.624L410.725 623.596L542.69 547.116L636.994 602.216L473.41 696.31L473.406 696.31C473.386 696.309 473.354 696.309 473.313 696.308C473.229 696.305 473.104 696.3 472.936 696.29C472.602 696.271 472.099 696.232 471.43 696.153C470.093 695.995 468.09 695.68 465.434 695.05C460.121 693.788 452.193 691.264 441.738 686.215C431.288 681.167 423.54 675.398 418.406 670.892C415.839 668.639 413.925 666.701 412.653 665.328C412.017 664.641 411.542 664.095 411.226 663.721C411.068 663.534 410.95 663.39 410.871 663.293C410.847 663.263 410.826 663.238 410.81 663.217C410.799 663.204 410.79 663.193 410.783 663.183L410.761 663.155L410.756 663.149L410.754 663.147L410.754 663.147C410.754 663.146 410.754 663.146 410.675 663.208ZM410.675 663.208L410.739 663.131L410.747 663.138L410.754 663.146L410.675 663.208Z" fill="#417DA7" stroke="#18435F" stroke-width="0.2"/>
<path d="M541.816 547.62V542.796L640.53 600.402L636.731 602.809L541.816 547.62Z" fill="#96AEC2" stroke="#18435F" stroke-width="0.2"/>
<line x1="376.133" y1="597.855" x2="304.548" y2="637.088" stroke="#18435F" stroke-width="0.2"/>
<path d="M637.238 602.127L438.749 717.553" stroke="#18435F" stroke-width="0.2"/>
<line x1="376.134" y1="604.638" x2="304.549" y2="645.087" stroke="#18435F" stroke-width="0.2"/>
<path d="M568.4 254C568.4 254.078 568.358 254.219 568.256 254.425C568.156 254.627 568.007 254.878 567.809 255.172C567.413 255.759 566.826 256.51 566.067 257.367C564.55 259.081 562.347 261.212 559.61 263.292C554.134 267.453 546.53 271.4 538 271.4C529.469 271.4 521.615 267.452 515.888 263.29C513.026 261.21 510.698 259.079 509.087 257.365C508.281 256.508 507.656 255.756 507.232 255.169C507.021 254.875 506.861 254.624 506.754 254.423C506.645 254.216 506.6 254.077 506.6 254C506.6 253.934 506.634 253.856 506.729 253.766C506.824 253.675 506.971 253.581 507.173 253.486C507.576 253.295 508.176 253.109 508.958 252.93C510.521 252.572 512.786 252.25 515.589 251.978C521.195 251.436 528.942 251.1 537.5 251.1C546.058 251.1 553.805 251.436 559.411 251.978C562.214 252.25 564.479 252.572 566.042 252.93C566.824 253.109 567.424 253.295 567.827 253.486C568.029 253.581 568.176 253.675 568.271 253.766C568.366 253.856 568.4 253.934 568.4 254Z" fill="#18435F" stroke="#18435F" stroke-width="0.2"/>
<path d="M505.734 253.9L537.998 220.147L568.276 253.9H505.734Z" fill="#18435F" stroke="#18435F" stroke-width="0.2"/>
<path d="M568.5 254C568.5 255.657 555.121 271.5 538 271.5C520.879 271.5 505.5 255.657 505.5 254C505.5 252.343 520.379 251 537.5 251C554.621 251 568.5 252.343 568.5 254Z" fill="#457496"/>
<path d="M538 220L568.5 254H505.5L538 220Z" fill="#457496"/>
<line x1="184.553" y1="561.915" x2="304.553" y2="636.915" stroke="#18435F" stroke-width="0.2"/>
<line x1="181.554" y1="566.916" x2="304.554" y2="644.916" stroke="#18435F" stroke-width="0.2"/>
<g opacity="0.9">
<path d="M535.341 214.639C530.747 213.925 525.908 211.168 522.272 207.469C518.632 203.767 516.242 199.171 516.459 194.806C516.895 186.012 525.38 176.149 538.845 177.004C542.84 177.258 548.066 178.476 552.315 181.544C556.55 184.603 559.834 189.511 559.954 197.204C560.064 204.191 556.242 208.897 551.215 211.691C546.175 214.492 539.947 215.354 535.341 214.639Z" stroke="white" stroke-width="0.6"/>
<path d="M524.57 195.514C524.515 190.865 526.434 185.637 529.481 181.439C532.53 177.237 536.667 174.121 541.008 173.613C549.754 172.589 560.884 179.327 562.266 192.747C562.676 196.73 562.339 202.085 560.016 206.783C557.699 211.466 553.401 215.515 545.835 216.906C538.961 218.169 533.689 215.178 530.102 210.682C526.506 206.175 524.626 200.175 524.57 195.514Z" stroke="white" stroke-width="0.6"/>
<path d="M556.881 190.201C556.881 194.85 554.899 200.055 551.802 204.216C548.703 208.381 544.528 211.447 540.182 211.903C531.424 212.822 520.376 205.951 519.155 192.515C518.792 188.528 519.194 183.177 521.574 178.507C523.946 173.853 528.292 169.855 535.875 168.555C542.763 167.374 548 170.428 551.532 174.967C555.073 179.518 556.881 185.54 556.881 190.201Z" stroke="white" stroke-width="0.6"/>
<path d="M533.06 217.183C528.421 217.49 523.097 215.857 518.74 213.043C514.379 210.226 511.043 206.263 510.3 201.956C508.803 193.279 514.928 181.8 528.254 179.692C532.208 179.067 537.574 179.113 542.391 181.179C547.192 183.237 551.469 187.31 553.268 194.79C554.902 201.585 552.201 207.012 547.906 210.837C543.6 214.672 537.711 216.874 533.06 217.183Z" stroke="white" stroke-width="0.6"/>
</g>
<path d="M478.005 648.882L433.691 618.011L517.971 573.129L545.353 609.97L478.005 648.882Z" fill="white" stroke="#18435F" stroke-width="0.2"/>
<path d="M393.087 513.19L382.5 506.91V494.831L393.087 501.112V513.19Z" fill="#96AEC2"/>
<path d="M403.674 506.91L393.087 513.19V501.112L403.674 494.831V506.91Z" fill="#457496"/>
<path d="M393.592 490L403.674 494.831L393.087 501.112L382.5 494.831L393.592 490Z" fill="#BBCFDF"/>
<path d="M404.435 513.19L397.5 509.076V501.165L404.435 505.279V513.19Z" fill="#96AEC2"/>
<path d="M411.37 509.076L404.435 513.19V505.279L411.37 501.165V509.076Z" fill="#457496"/>
<path d="M404.765 498L411.369 501.165L404.435 505.279L397.5 501.165L404.765 498Z" fill="#BBCFDF"/>
<path d="M396.435 519.19L389.5 515.076V507.165L396.435 511.279V519.19Z" fill="#96AEC2"/>
<path d="M403.37 515.076L396.435 519.19V511.279L403.37 507.165V515.076Z" fill="#457496"/>
<path d="M396.765 504L403.369 507.165L396.435 511.279L389.5 507.165L396.765 504Z" fill="#BBCFDF"/>
<path d="M417 521.19L405.5 517.076V509.165L417 513.279V521.19Z" fill="#96AEC2"/>
<path d="M428.5 517.076L417 521.19V513.279L428.5 509.165V517.076Z" fill="#457496"/>
<path d="M417.548 506L428.5 509.165L417 513.279L405.5 509.165L417.548 506Z" fill="#BBCFDF"/>
<path d="M545.877 517.651L562.377 507.944L566.369 510.163L549.869 519.868L545.877 517.651ZM550.881 522.152L567.38 512.445L571.372 514.665L554.873 524.369L550.881 522.152ZM574.872 519.165L558.373 528.869L554.381 526.652L570.88 516.945L574.872 519.165ZM558.381 531.651L574.881 521.944L578.873 524.163L562.373 533.868L558.381 531.651ZM581.873 528.663L565.373 538.368L561.381 536.151L577.881 526.444L581.873 528.663ZM565.881 540.652L582.38 530.945L586.372 533.165L569.873 542.869L565.881 540.652ZM590.872 538.163L574.372 547.868L570.38 545.651L586.879 535.944L590.872 538.163ZM574.381 550.151L590.881 540.444L594.873 542.663L578.373 552.368L574.381 550.151ZM594.879 544.944L598.872 547.163L582.372 556.868L578.38 554.651L594.879 544.944ZM585.873 561.869L581.881 559.652L598.38 549.945L602.372 552.165L585.873 561.869Z" fill="#F9FAFE" stroke="#456276" stroke-width="0.5"/>
<path d="M594.877 386.651L611.377 376.944L615.369 379.163L598.869 388.868L594.877 386.651ZM599.881 391.152L616.38 381.445L620.372 383.665L603.873 393.369L599.881 391.152ZM623.872 388.165L607.373 397.869L603.381 395.652L619.88 385.945L623.872 388.165ZM607.381 400.651L623.881 390.944L627.873 393.163L611.373 402.868L607.381 400.651ZM630.873 397.663L614.373 407.368L610.381 405.151L626.881 395.444L630.873 397.663ZM614.881 409.652L631.38 399.945L635.372 402.165L618.873 411.869L614.881 409.652ZM639.872 407.163L623.372 416.868L619.38 414.651L635.879 404.944L639.872 407.163ZM623.381 419.151L639.881 409.444L643.873 411.663L627.373 421.368L623.381 419.151ZM643.879 413.944L647.872 416.163L631.372 425.868L627.38 423.651L643.879 413.944ZM634.873 430.869L630.881 428.652L647.38 418.945L651.372 421.165L634.873 430.869Z" fill="#F9FAFE" stroke="#456276" stroke-width="0.5"/>
<path d="M513.062 458.556L516.476 457.276L531.979 466.481L528.514 468.214L513.062 458.556ZM509.062 463.056L512.476 461.776L527.979 470.981L524.514 472.714L509.062 463.056ZM505.062 467.556L508.476 466.276L523.979 475.481L520.514 477.214L505.062 467.556ZM501.062 472.556L504.476 471.276L519.979 480.481L516.514 482.214L501.062 472.556ZM497.062 477.056L500.476 475.776L515.979 484.981L512.514 486.714L497.062 477.056ZM493.062 481.056L496.476 479.776L511.979 488.981L508.514 490.714L493.062 481.056ZM489.062 486.056L492.476 484.776L507.979 493.981L504.514 495.714L489.062 486.056ZM485.062 491.056L488.476 489.776L503.979 498.981L500.514 500.714L485.062 491.056ZM481.062 495.056L484.476 493.776L499.979 502.981L496.514 504.714L481.062 495.056ZM477.491 500.508L480.498 498.789L495.979 507.981L492.512 509.714L477.491 500.508Z" fill="#F9FAFE" stroke="#1E4760" stroke-width="0.5"/>
<path d="M574.062 332.556L577.476 331.276L592.979 340.481L589.514 342.214L574.062 332.556ZM570.062 337.056L573.476 335.776L588.979 344.981L585.514 346.714L570.062 337.056ZM566.062 341.556L569.476 340.276L584.979 349.481L581.514 351.214L566.062 341.556ZM562.062 346.556L565.476 345.276L580.979 354.481L577.514 356.214L562.062 346.556ZM558.062 351.056L561.476 349.776L576.979 358.981L573.514 360.714L558.062 351.056ZM554.062 355.056L557.476 353.776L572.979 362.981L569.514 364.714L554.062 355.056ZM550.062 360.056L553.476 358.776L568.979 367.981L565.514 369.714L550.062 360.056ZM546.062 365.056L549.476 363.776L564.979 372.981L561.514 374.714L546.062 365.056ZM542.062 369.056L545.476 367.776L560.979 376.981L557.514 378.714L542.062 369.056ZM538.021 374.519L541.49 372.785L556.979 381.981L553.51 383.715L538.021 374.519Z" fill="#F9FAFE" stroke="#1E4760" stroke-width="0.5"/>
<path d="M349.087 533.19L338.5 526.91V514.831L349.087 521.112V533.19Z" fill="#96AEC2"/>
<path d="M359.674 526.91L349.087 533.19V521.112L359.674 514.831V526.91Z" fill="#457496"/>
<path d="M349.592 510L359.674 514.831L349.087 521.112L338.5 514.831L349.592 510Z" fill="#BBCFDF"/>
<path d="M360.435 533.19L353.5 529.076V521.165L360.435 525.279V533.19Z" fill="#96AEC2"/>
<path d="M367.37 529.076L360.435 533.19V525.279L367.37 521.165V529.076Z" fill="#457496"/>
<path d="M360.765 518L367.369 521.165L360.435 525.279L353.5 521.165L360.765 518Z" fill="#BBCFDF"/>
<path d="M352.435 539.19L345.5 535.076V527.165L352.435 531.279V539.19Z" fill="#96AEC2"/>
<path d="M359.37 535.076L352.435 539.19V531.279L359.37 527.165V535.076Z" fill="#457496"/>
<path d="M352.765 524L359.369 527.165L352.435 531.279L345.5 527.165L352.765 524Z" fill="#BBCFDF"/>
<path d="M373.087 522.19L362.5 515.91V503.831L373.087 510.112V522.19Z" fill="#96AEC2"/>
<path d="M383.674 515.91L373.087 522.19V510.112L383.674 503.831V515.91Z" fill="#457496"/>
<path d="M373.592 499L383.674 503.831L373.087 510.112L362.5 503.831L373.592 499Z" fill="#BBCFDF"/>
<path d="M384.435 522.19L377.5 518.076V510.165L384.435 514.279V522.19Z" fill="#96AEC2"/>
<path d="M391.37 518.076L384.435 522.19V514.279L391.37 510.165V518.076Z" fill="#457496"/>
<path d="M384.765 507L391.369 510.165L384.435 514.279L377.5 510.165L384.765 507Z" fill="#BBCFDF"/>
<path d="M376.435 528.19L369.5 524.076V516.165L376.435 520.279V528.19Z" fill="#96AEC2"/>
<path d="M383.37 524.076L376.435 528.19V520.279L383.37 516.165V524.076Z" fill="#457496"/>
<path d="M376.765 513L383.369 516.165L376.435 520.279L369.5 516.165L376.765 513Z" fill="#BBCFDF"/>
<path d="M397 530.19L385.5 526.076V518.165L397 522.279V530.19Z" fill="#96AEC2"/>
<path d="M408.5 526.076L397 530.19V522.279L408.5 518.165V526.076Z" fill="#457496"/>
<path d="M397.548 515L408.5 518.165L397 522.279L385.5 518.165L397.548 515Z" fill="#BBCFDF"/>
<path d="M373 541.19L361.5 537.076V529.165L373 533.279V541.19Z" fill="#96AEC2"/>
<path d="M384.5 537.076L373 541.19V533.279L384.5 529.165V537.076Z" fill="#457496"/>
<path d="M373.548 526L384.5 529.165L373 533.279L361.5 529.165L373.548 526Z" fill="#BBCFDF"/>
<path d="M374.087 556.19L363.5 549.91V537.831L374.087 544.112V556.19Z" fill="#96AEC2"/>
<path d="M384.674 549.91L374.087 556.19V544.112L384.674 537.831V549.91Z" fill="#457496"/>
<path d="M374.592 533L384.674 537.831L374.087 544.112L363.5 537.831L374.592 533Z" fill="#BBCFDF"/>
<path d="M385.435 556.19L378.5 552.076V544.165L385.435 548.279V556.19Z" fill="#96AEC2"/>
<path d="M392.37 552.076L385.435 556.19V548.279L392.37 544.165V552.076Z" fill="#457496"/>
<path d="M385.765 541L392.369 544.165L385.435 548.279L378.5 544.165L385.765 541Z" fill="#BBCFDF"/>
<path d="M377.435 562.19L370.5 558.076V550.165L377.435 554.279V562.19Z" fill="#96AEC2"/>
<path d="M384.37 558.076L377.435 562.19V554.279L384.37 550.165V558.076Z" fill="#457496"/>
<path d="M377.765 547L384.369 550.165L377.435 554.279L370.5 550.165L377.765 547Z" fill="#BBCFDF"/>
<path d="M398 564.19L386.5 560.076V552.165L398 556.279V564.19Z" fill="#96AEC2"/>
<path d="M409.5 560.076L398 564.19V556.279L409.5 552.165V560.076Z" fill="#457496"/>
<path d="M398.548 549L409.5 552.165L398 556.279L386.5 552.165L398.548 549Z" fill="#BBCFDF"/>
<path d="M428 462.716V433.869L464 454.788V484.121L428 462.716Z" fill="#F9FAFE" stroke="#18435F"/>
<path d="M452 461.631V455.847L460 460.257V466.144L452 461.631Z" fill="#F9FAFE" stroke="#18435F"/>
<path d="M425.5 428L466 451.5V455.5L425.5 432V428Z" fill="#18435F"/>
<path d="M432.5 444L449.5 454.255V456L432.5 445.745V444Z" fill="#18435F"/>
<path d="M432.5 448L449.5 458.255V460L432.5 449.745V448Z" fill="#18435F"/>
<path d="M432.5 453L449.5 463.255V465L432.5 454.745V453Z" fill="#18435F"/>
<path d="M685 428.716V399.869L721 420.788V450.121L685 428.716Z" fill="#F9FAFE" stroke="#18435F"/>
<path d="M682.5 394L723 417.5V421.5L682.5 398V394Z" fill="#18435F"/>
<path d="M414.449 392.559L464.72 362.939L535.679 401.73L483.836 433.18L414.449 392.559Z" stroke="#457496" stroke-width="4"/>
<path d="M459.529 389.372L469.996 383.206L484.655 391.219L473.865 397.765L459.529 389.372ZM443.162 380.693L453.628 374.526L468.288 382.54L457.498 389.086L443.162 380.693Z" fill="#457496" stroke="#457496" stroke-width="0.5"/>
<path d="M474.359 381.371L484.826 375.204L499.485 383.218L488.695 389.764L474.359 381.371ZM458.496 372.494L468.46 366.525L483.119 374.539L472.994 380.709L458.496 372.494Z" fill="#457496" stroke="#457496" stroke-width="0.5"/>
<path d="M446.994 397.021L457.46 390.854L472.12 398.868L461.33 405.414L446.994 397.021Z" fill="#457496" stroke="#457496" stroke-width="0.5"/>
<path d="M434.994 405.021L445.46 398.854L460.12 406.868L449.33 413.414L434.994 405.021Z" fill="#457496" stroke="#457496" stroke-width="0.5"/>
<path d="M430.994 388.213L441.46 382.046L456.12 390.06L445.33 396.606L430.994 388.213Z" fill="#457496" stroke="#457496" stroke-width="0.5"/>
<path d="M418.994 396.213L429.46 390.046L444.12 398.06L433.33 404.606L418.994 396.213Z" fill="#457496" stroke="#457496" stroke-width="0.5"/>
<path d="M455.994 415.021L466.46 408.854L481.12 416.868L470.33 423.414L455.994 415.021Z" fill="#457496" stroke="#457496" stroke-width="0.5"/>
<path d="M472.975 425.01L482.896 418.523L495.97 425.611L485.736 432.48L472.975 425.01Z" fill="#457496" stroke="#457496" stroke-width="0.5"/>
<path d="M512.906 389.028C522.767 391.297 519.977 412.397 513.64 415.062C497.082 423.298 482.76 414.221 480.833 409.639C477.469 401.641 481.552 397.701 487.89 395.036C494.227 392.371 510.979 384.446 512.906 389.028Z" fill="#457496"/>
<path d="M405.656 392.154L463.753 357.922L544.514 402.072L484.641 438.393L405.656 392.154Z" stroke="#18435F"/>
<path d="M484.518 346.061C486.247 352.301 485.445 355.074 484.895 356.062C484.625 356.546 484.341 356.759 484.147 356.865C483.943 356.976 483.784 356.997 483.757 357.001C483.752 357.001 483.751 357.001 483.754 357.001M484.518 346.061L483.754 357.001H483.754M484.518 346.061C482.319 341.333 479.92 338.765 477.832 337.358C475.784 335.978 473.756 335.527 471.923 335.501C471.818 335.697 471.653 336.091 471.53 336.785C471.174 338.795 471.419 341.929 472.473 345.413C474.252 349.338 476.438 352.342 478.582 354.313C480.835 356.384 482.671 357.001 483.754 357.001M484.518 346.061L483.754 357.001" fill="#FFFBFD" stroke="#18435F" stroke-width="9"/>
<path d="M475.69 336.537C478.56 338.471 481.439 341.756 483.906 347.172C485.877 354.091 485.31 358.175 484.013 360.505C482.72 362.826 480.651 363.499 479.377 363.498C476.925 363.498 474.165 362.207 471.498 359.755C468.843 357.314 466.322 353.758 464.345 349.322C463.117 345.377 462.703 341.473 463.215 338.584C463.471 337.137 463.953 335.985 464.641 335.202C465.315 334.435 466.209 333.997 467.377 333.997C469.917 333.997 472.816 334.601 475.69 336.537Z" fill="#FFFBFD" stroke="#18435F"/>
<path d="M465.5 334L469.5 331.5L470.5 334H467.5H465.5Z" fill="#18435F"/>
<path d="M483.167 361H484.5H486L481.5 363.5L483.167 361Z" fill="#18435F"/>
<path d="M476.575 388.299L465.646 369.528L465.578 369.411L465.503 369.3L465.503 369.3L465.502 369.3L465.502 369.299L465.502 369.298L465.494 369.287L465.46 369.236C465.428 369.189 465.379 369.116 465.315 369.018C465.186 368.823 464.994 368.53 464.747 368.148C464.255 367.385 463.548 366.268 462.701 364.874C461.006 362.081 458.766 358.196 456.578 353.819C452.941 346.546 452.132 341.866 451.642 339.039C451.564 338.588 451.494 338.184 451.422 337.824C451.261 337.015 451.049 334.351 451.155 331.209C451.263 327.997 451.682 325.155 452.344 323.665C453.036 322.107 454.359 320.532 455.706 319.24C456.351 318.623 456.943 318.125 457.369 317.785C457.58 317.617 457.748 317.49 457.855 317.41C457.909 317.37 457.948 317.342 457.97 317.326L457.985 317.315L457.987 317.314L457.989 317.312L457.989 317.312L457.99 317.312L458.064 317.26L458.069 317.256C458.111 317.23 458.203 317.174 458.348 317.101C458.665 316.94 459.236 316.693 460.073 316.489C461.72 316.089 464.545 315.822 468.673 316.908C473.327 318.134 476.173 319.153 478.658 320.713C481.138 322.269 483.52 324.529 486.911 328.65C493.363 336.489 495.375 343.329 496.807 349.075C497.427 351.561 497.685 355.502 497.625 359.577C497.564 363.632 497.198 367.307 496.784 369.172C496.476 370.557 495.532 372.244 494.099 374.078C492.707 375.861 491.124 377.451 489.862 378.716C489.495 379.083 488.359 379.991 486.55 381.32C484.843 382.574 482.776 384.03 480.767 385.423C479.269 386.462 477.813 387.458 476.575 388.299Z" stroke="#18435F" stroke-width="8"/>
<path d="M464.628 361.285C470.426 368.491 473.589 370.293 476.225 370.893C478.861 371.494 480.969 372.094 483.078 372.094C485.187 372.094 487.295 371.494 488.877 369.692C490.459 367.891 493 364 495 353C497 342 493.094 375.697 493.094 375.697L477.28 387.107C477.28 387.107 458.829 354.079 464.628 361.285Z" fill="#18435F"/>
<rect x="-0.1" y="0.1" width="8.8" height="7.8" transform="matrix(-1 0 0 1 561.3 590)" fill="#96AEC2" stroke="#18435F" stroke-width="0.2"/>
<path d="M430.565 663.903L420.654 642.595L477.504 640.6L477.527 640.599L477.548 640.588L488.4 634.668V640.5V640.674L488.55 640.586L568.374 594.189L565.407 616.438L479.975 666.399L430.565 663.903Z" fill="#457496" stroke="#18435F" stroke-width="0.2"/>
<path d="M560.552 593.915L560.695 594.002L560.55 594.086L488.6 636.057V640.326L568.306 593.997L554.1 585.18V589.944L560.552 593.915Z" fill="#BBCFDF" stroke="#18435F" stroke-width="0.2"/>
<path d="M434.502 604.613L438.291 606.507L429.949 611.414L429.909 611.438L429.901 611.484L425.401 638.984L425.382 639.105L425.504 639.1L475.504 637.1L475.528 637.099L475.549 637.087L484.497 632.116L488.302 634.494L477.473 640.401L420.617 642.396L425.592 609.564L434.502 604.613Z" fill="#BBCFDF" stroke="#18435F" stroke-width="0.2"/>
<path d="M430.1 618.816V611.557L438.4 606.675V613.446L430.1 618.816Z" fill="#96AEC2" stroke="#18435F" stroke-width="0.2"/>
<path d="M538 220L569 254.5C569 254.5 565.5 259.5 556 266C546.5 272.5 538.5 271.5 538.5 271.5L538 220Z" fill="#18435F"/>
<path d="M425.5 639L430 611.5V619L427 639H425.5Z" fill="#96AEC2"/>
<path d="M430.092 619.059L438.504 613.616L478.285 635.496L475.474 636.901L427.117 638.895L430.092 619.059Z" fill="#BBCFDF" stroke="#18435F" stroke-width="0.2"/>
<path d="M438.6 613.323V608.558L470.9 590.172V593.943L438.6 613.323Z" fill="#BBCFDF" stroke="#18435F" stroke-width="0.2"/>
<path d="M443.5 616.383L438.694 613.5L462.4 599.177V604.944L443.5 616.383Z" fill="#96AEC2" stroke="#18435F" stroke-width="0.2"/>
<path d="M462.6 599.169V615.941L488.9 630.331V613.559L462.6 599.169Z" fill="#96AEC2" stroke="#18435F" stroke-width="0.2"/>
<path d="M489.1 630.324V613.559L517.4 597.671V613.443L489.1 630.324Z" fill="#457496" stroke="#18435F" stroke-width="0.2"/>
<path d="M462.703 598.997L471.001 594.115L497.786 608.995L489.002 613.387L462.703 598.997Z" fill="#BBCFDF" stroke="#18435F" stroke-width="0.2"/>
<path d="M510.5 592.5V601.5L517.5 597.5L510.5 592.5Z" fill="#BBCFDF"/>
<path d="M471.1 593.942V578.169L497.4 592.559V608.828L471.1 593.942Z" fill="#96AEC2" stroke="#18435F" stroke-width="0.2"/>
<path d="M497.6 608.827V592.554L510.4 584.185V601.442L497.6 608.827Z" fill="#457496" stroke="#18435F" stroke-width="0.2"/>
<path d="M471.213 578.002L485.499 570.613L510.305 584.008L497.495 592.384L471.213 578.002Z" fill="#BBCFDF" stroke="#18435F" stroke-width="0.2"/>
<path d="M535.6 608.328V581.057L553.9 570.176V597.942L535.6 608.328Z" fill="#457496" stroke="#18435F" stroke-width="0.2"/>
<path d="M535.499 580.884L500.205 560.503L519.498 550.115L553.802 570.001L535.499 580.884Z" fill="#96AEC2" stroke="#18435F" stroke-width="0.2"/>
<path d="M510.6 584V583.939L510.546 583.911L500.1 578.439V560.673L535.4 581.058V608.338L517.6 599.438V597.5V597.448L517.558 597.418L510.6 592.49V584Z" fill="#96AEC2" stroke="#18435F" stroke-width="0.2"/>
<path d="M520.6 563.061V555.671L530.4 561.182V569.811L520.6 563.061Z" fill="#96AEC2" stroke="#18435F" stroke-width="0.2"/>
<path d="M530.6 569.832V561.427L536.4 558.172V566.611L530.6 569.832Z" fill="#457496" stroke="#18435F" stroke-width="0.2"/>
<path d="M520.693 555.504L530.501 561.689L536.302 558.118L525.983 552.422L520.693 555.504Z" fill="#BBCFDF" stroke="#18435F" stroke-width="0.2"/>
<path d="M504.602 578.299L504.97 565.172L531.398 580.701L531.03 593.828L504.602 578.299Z" fill="#18435F" stroke="#457496" stroke-width="0.2"/>
<path d="M623.6 338.943V305.676L654.4 324.057V357.324L623.6 338.943Z" fill="#96AEC2" stroke="#18435F" stroke-width="0.2"/>
<path d="M684.9 339.443V306.175L654.6 324.057V357.325L684.9 339.443Z" fill="#457496" stroke="#18435F" stroke-width="0.2"/>
<path d="M623.699 305.502L654.499 288.115L684.803 306L654.5 323.884L623.699 305.502Z" fill="#18435F" stroke="#18435F" stroke-width="0.2"/>
<line x1="605" y1="462" x2="605" y2="479" stroke="#18435F"/>
<line x1="632" y1="477" x2="632" y2="494" stroke="#18435F"/>
<line x1="675" y1="450" x2="675" y2="467" stroke="#18435F"/>
<path d="M631.994 477.267L604.905 461.999L650.002 436.229L675.107 450.012L631.994 477.267Z" fill="#18435F" stroke="#18435F" stroke-width="0.4"/>
<path d="M609 468L609 485" stroke="black"/>
<line x1="624" y1="476" x2="624" y2="485" stroke="black"/>
<line x1="618" y1="474" x2="618" y2="480" stroke="black"/>
<path d="M616 473L624.5 476L617 480L609 476L616 473Z" fill="#18435F"/>
<path d="M617 471.755L617 489.755" stroke="black"/>
<path d="M608.5 467L617.5 471.235V475.5L608.5 471.235V467Z" fill="#18435F"/>
<line x1="672" y1="459" x2="672" y2="478" stroke="black"/>
<line x1="657" y1="478" x2="657" y2="468" stroke="black"/>
<path d="M655.5 468L663.5 463.5L671.5 467.5L663.5 472.5L655.5 468Z" fill="#18435F"/>
<path d="M662.5 463.5L671.5 459V462.5L662.5 468V463.5Z" fill="#18435F"/>
<line x1="653.5" y1="470" x2="653.5" y2="489" stroke="black"/>
<line x1="638.5" y1="489" x2="638.5" y2="479" stroke="black"/>
<path d="M637 479L645 474.5L653 478.5L645 483.5L637 479Z" fill="#18435F"/>
<path d="M644 474.5L653 470V473.5L644 479V474.5Z" fill="#18435F"/>
<line x1="644.5" y1="493" x2="644.5" y2="475" stroke="black"/>
<line x1="663" y1="482" x2="663" y2="464" stroke="black"/>
<line x1="397" y1="532" x2="397" y2="549" stroke="#18435F"/>
<line x1="424" y1="547" x2="424" y2="564" stroke="#18435F"/>
<line x1="467" y1="520" x2="467" y2="537" stroke="#18435F"/>
<path d="M423.994 547.267L396.905 531.999L442.002 506.229L467.107 520.012L423.994 547.267Z" fill="#18435F" stroke="#18435F" stroke-width="0.4"/>
<line y1="-0.5" x2="10" y2="-0.5" transform="matrix(0 1 1 0 749.5 469)" stroke="#18435F"/>
<line y1="-0.5" x2="9" y2="-0.5" transform="matrix(0 1 1 0 735.5 475)" stroke="#18435F"/>
<line y1="-0.5" x2="9" y2="-0.5" transform="matrix(0 1 1 0 714.5 462)" stroke="#18435F"/>
<path d="M736.4 476.767L751.098 468.408L726.505 454.23L712.891 461.771L736.4 476.767Z" fill="#96AEC2" stroke="#18435F" stroke-width="0.4"/>
<path d="M736.5 465.738C736.5 465.899 734.801 467.445 732.627 467.445C730.453 467.445 728.5 465.899 728.5 465.738C728.5 465.576 730.389 465.445 732.563 465.445C734.738 465.445 736.5 465.576 736.5 465.738Z" fill="#457496"/>
<path d="M732.627 461.445L736.5 465.445H728.5L732.627 461.445Z" fill="#457496"/>
<g opacity="0.9">
<path d="M732.03 460.542C731.494 460.458 730.925 460.135 730.495 459.698C730.065 459.261 729.79 458.725 729.815 458.225C729.866 457.203 730.855 456.045 732.437 456.146C732.91 456.176 733.525 456.32 734.023 456.68C734.516 457.036 734.9 457.607 734.914 458.511C734.927 459.322 734.486 459.868 733.897 460.195C733.304 460.524 732.57 460.626 732.03 460.542Z" stroke="#18435F" stroke-width="0.2"/>
<path d="M730.79 458.306C730.784 457.764 731.008 457.149 731.368 456.653C731.729 456.156 732.212 455.796 732.709 455.738C733.725 455.619 735.03 456.404 735.193 457.981C735.241 458.452 735.201 459.082 734.929 459.633C734.659 460.178 734.159 460.651 733.27 460.815C732.473 460.961 731.861 460.616 731.441 460.09C731.018 459.559 730.797 458.852 730.79 458.306Z" stroke="#18435F" stroke-width="0.2"/>
<path d="M734.545 457.668C734.545 458.21 734.313 458.823 733.948 459.314C733.581 459.807 733.093 460.16 732.596 460.213C731.578 460.319 730.283 459.519 730.139 457.94C730.096 457.469 730.144 456.839 730.423 456.292C730.699 455.75 731.205 455.282 732.096 455.13C732.895 454.993 733.502 455.345 733.916 455.877C734.332 456.412 734.545 457.122 734.545 457.668Z" stroke="#18435F" stroke-width="0.2"/>
<path d="M731.742 460.847C731.201 460.883 730.575 460.692 730.06 460.359C729.544 460.026 729.159 459.563 729.074 459.07C728.9 458.062 729.613 456.716 731.179 456.468C731.646 456.394 732.278 456.4 732.842 456.642C733.402 456.882 733.901 457.356 734.113 458.234C734.302 459.023 733.991 459.652 733.488 460.1C732.981 460.551 732.287 460.811 731.742 460.847Z" stroke="#18435F" stroke-width="0.2"/>
</g>
<path d="M732.5 461.445L736.5 465.46C736.5 465.46 736.048 466.042 734.823 466.798C733.597 467.555 732.565 467.438 732.565 467.438L732.5 461.445Z" fill="#18435F"/>
<path d="M694.516 415.676L698.389 417.706L700.235 426.143L697.358 427.624L694.516 415.676Z" fill="#4B667A"/>
<path d="M711.376 423.559L707.338 421.443L697.801 429.758L700.763 431.31L711.376 423.559Z" fill="#4B667A"/>
<path d="M374.504 237.213C351.754 251.161 332.464 260.018 330 256C327.536 251.982 342.833 236.609 365.582 222.662C388.331 208.714 410.606 203.636 412.013 204.97C413.421 206.305 397.253 223.265 374.504 237.213Z" fill="#BBCFDF"/>
<path d="M339 243C339 243 339 243.5 340 244.5C341 245.5 341.5 246 341.5 246C341.5 246 342.5 246.5 345 247C347.5 247.5 349 247.5 349 247.5C349 247.5 346.5 249 344 249C341.5 249 339.5 248 339.5 248C339.5 248 338.5 247.5 338.5 245.5C338.5 243.5 339 243 339 243Z" fill="white"/>
<ellipse cx="356" cy="242.5" rx="1" ry="1.5" fill="white"/>
<ellipse cx="360" cy="239.5" rx="1" ry="1.5" fill="white"/>
<ellipse cx="364" cy="237.5" rx="1" ry="1.5" fill="white"/>
<ellipse cx="368" cy="234.5" rx="1" ry="1.5" fill="white"/>
<ellipse cx="373" cy="231.5" rx="1" ry="1.5" fill="white"/>
<ellipse cx="377" cy="229.5" rx="1" ry="1.5" fill="white"/>
<ellipse cx="381" cy="226.5" rx="1" ry="1.5" fill="white"/>
<ellipse cx="386" cy="224.5" rx="1" ry="1.5" fill="white"/>
<path d="M408.5 193L414 190L411 206L398.5 212.5L408.5 193Z" fill="#4B667A"/>
<path d="M376.5 235L413.5 249.5L406 254L361.5 245L376.5 235Z" fill="#18435F"/>
<path d="M339 232C339 233.657 337.657 235 336 235C334.343 235 332.5 232.657 332.5 231C332.5 229.343 333.843 228 335.5 228C337.157 228 339 230.343 339 232Z" fill="#18435F"/>
<path d="M372.5 252C372.5 253.657 371.157 255 369.5 255C367.843 255 366 252.657 366 251C366 249.343 367.343 248 369 248C370.657 248 372.5 250.343 372.5 252Z" fill="#18435F"/>
<line x1="304.55" y1="637" x2="304.55" y2="645" stroke="#18435F" stroke-width="0.1"/>
<line x1="438.55" y1="718" x2="438.55" y2="730" stroke="#18435F" stroke-width="0.1"/>
<path d="M622.053 606.5L650.5 621.916C650.5 621.916 646.947 628.5 646 632.5C645.053 636.5 645.053 640.635 645.053 640.635L644.552 655.5L615.5 638.795V625.989C615.5 625.989 616.575 618.162 617.785 615.409C618.996 612.656 622.053 606.5 622.053 606.5Z" fill="#4B667A"/>
<path d="M697.553 561.5L726 576.916C726 576.916 722.447 583.5 721.5 587.5C720.553 591.5 720.553 595.635 720.553 595.635L720.052 610.5L691 593.795V580.989C691 580.989 692.075 573.162 693.285 570.409C694.496 567.656 697.553 561.5 697.553 561.5Z" fill="#4B667A"/>
<path d="M623 614.5L643.5 626.5C641.615 633.958 640.941 637.837 640.5 644.5L619.5 632C619.5 632 619.5 626.5 620.5 622.5C621.5 618.5 623 614.5 623 614.5Z" fill="white"/>
<path d="M698.5 569.5L719 581.5C717.115 588.958 716.441 592.837 716 599.5L695 587C695 587 695 581.5 696 577.5C697 573.5 698.5 569.5 698.5 569.5Z" fill="white"/>
<path d="M622.579 637.574C622.579 638.72 622.686 639.648 621.553 639.648C620.421 639.648 619.503 638.72 619.503 637.574C619.503 636.429 619.396 635.5 620.528 635.5C621.661 635.5 622.579 636.429 622.579 637.574Z" fill="white"/>
<path d="M639.497 647.426C639.497 648.571 639.604 649.5 638.472 649.5C637.339 649.5 636.421 648.571 636.421 647.426C636.421 646.28 636.314 645.352 637.447 645.352C638.579 645.352 639.497 646.28 639.497 647.426Z" fill="white"/>
<line x1="625" y1="637.5" x2="625" y2="640.5" stroke="black"/>
<line x1="700.5" y1="592.5" x2="700.5" y2="595.5" stroke="black"/>
<line x1="627" y1="638.5" x2="627" y2="641.5" stroke="black"/>
<line x1="702.5" y1="593.5" x2="702.5" y2="596.5" stroke="black"/>
<line x1="629" y1="639.5" x2="629" y2="642.5" stroke="black"/>
<line x1="704.5" y1="594.5" x2="704.5" y2="597.5" stroke="black"/>
<line x1="631" y1="640.5" x2="631" y2="643.5" stroke="black"/>
<line x1="706.5" y1="595.5" x2="706.5" y2="598.5" stroke="black"/>
<line x1="633" y1="641.5" x2="633" y2="644.5" stroke="black"/>
<line x1="708.5" y1="596.5" x2="708.5" y2="599.5" stroke="black"/>
<path d="M640.5 595L668.5 611L650.61 622.003L622 606.502L640.5 595Z" fill="#BBCFDF"/>
<path d="M716 550L744 566L726.11 577.003L697.5 561.502L716 550Z" fill="#BBCFDF"/>
<path d="M668.5 611L668.5 648L664.5 649.5C664.5 649.5 664 642.5 657.5 644C651 645.5 649.5 653.5 649.5 653.5L644.5 655.5L645 641C645 641 645 634.5 646 631.5C647 628.5 650.5 622 650.5 622L668.5 611Z" fill="#457496"/>
<path d="M744 566L744 603L740 604.5C740 604.5 739.5 597.5 733 599C726.5 600.5 725 608.5 725 608.5L720 610.5L720.5 596C720.5 596 720.5 589.5 721.5 586.5C722.5 583.5 726 577 726 577L744 566Z" fill="#457496"/>
<path d="M615 644.5V638.5L644.5 655.5V661.5L615 644.5Z" fill="#96AEC2"/>
<path d="M690.5 599.5V593.5L720 610.5V616.5L690.5 599.5Z" fill="#96AEC2"/>
<path d="M644.5 655.5L649.5 653.5L648.5 660.5L644.5 661.5V655.5Z" fill="#96AEC2"/>
<path d="M720 610.5L725 608.5L724 615.5L720 616.5V610.5Z" fill="#96AEC2"/>
<path d="M643.5 586.5L686 561L716.5 578.5L672.5 604.5L643.5 586.5Z" fill="#4B667A"/>
<path d="M719 541.5L761.5 516L792 533.5L748 559.5L719 541.5Z" fill="#4B667A"/>
<path d="M672.5 604L716.5 578.5L716 607.5L672.5 633V604Z" fill="#4B667A"/>
<path d="M748 559L792 533.5L791.5 562.5L748 588V559Z" fill="#4B667A"/>
<path d="M672.5 632.5L668.5 634.5V611L643.5 597V586.5L672.5 604V632.5Z" fill="#96AEC2"/>
<path d="M748 587.5L744 589.5V566L719 552V541.5L748 559V587.5Z" fill="#96AEC2"/>
<path d="M670.5 638.5L683.5 631.5V643.5L670.5 650.5V638.5Z" fill="#96AEC2"/>
<path d="M746 593.5L759 586.5V598.5L746 605.5V593.5Z" fill="#96AEC2"/>
<path d="M668.5 634.5L711 609.5V619.5L709 623.5L705.5 626.5C705.5 626.5 704.5 615.5 696.5 621.5C688.5 627.5 689.5 636 689.5 636L683.5 639V631.5L670.5 638.5V650.5L668.5 648V634.5Z" fill="#457496"/>
<path d="M744 589.5L786.5 564.5V574.5L784.5 578.5L781 581.5C781 581.5 780 570.5 772 576.5C764 582.5 765 591 765 591L759 594V586.5L746 593.5V605.5L744 603V589.5Z" fill="#457496"/>
<path d="M663.422 655.506C662.278 660.879 658.474 664.623 654.926 663.868C651.377 663.112 649.427 658.144 650.571 652.77C651.714 647.397 655.518 643.653 659.067 644.408C662.616 645.164 664.566 650.132 663.422 655.506Z" fill="#18435F"/>
<path d="M738.922 610.506C737.778 615.879 733.974 619.623 730.426 618.868C726.877 618.112 724.927 613.144 726.071 607.77C727.214 602.397 731.018 598.653 734.567 599.408C738.116 600.164 740.066 605.132 738.922 610.506Z" fill="#18435F"/>
<path d="M659.226 654.613C658.829 656.477 657.509 657.777 656.277 657.515C655.046 657.252 654.369 655.528 654.766 653.663C655.163 651.798 656.483 650.499 657.715 650.761C658.946 651.023 659.623 652.748 659.226 654.613Z" fill="white"/>
<path d="M734.726 609.613C734.329 611.477 733.009 612.777 731.777 612.515C730.546 612.252 729.869 610.528 730.266 608.663C730.663 606.798 731.983 605.499 733.215 605.761C734.446 606.023 735.123 607.748 734.726 609.613Z" fill="white"/>
<path d="M704.422 631.965C703.278 637.339 699.474 641.083 695.926 640.327C692.377 639.572 690.427 634.603 691.571 629.23C692.714 623.856 696.518 620.112 700.067 620.868C703.616 621.623 705.566 626.591 704.422 631.965Z" fill="#18435F"/>
<path d="M779.922 586.965C778.778 592.339 774.974 596.083 771.426 595.327C767.877 594.572 765.927 589.603 767.071 584.23C768.214 578.856 772.018 575.112 775.567 575.868C779.116 576.623 781.066 581.591 779.922 586.965Z" fill="#18435F"/>
<path d="M700.464 631.123C700.025 633.186 698.564 634.624 697.201 634.334C695.838 634.044 695.089 632.136 695.528 630.072C695.968 628.008 697.429 626.571 698.792 626.861C700.154 627.151 700.903 629.059 700.464 631.123Z" fill="white"/>
<path d="M775.964 586.123C775.525 588.186 774.064 589.624 772.701 589.334C771.338 589.044 770.589 587.136 771.028 585.072C771.468 583.008 772.929 581.571 774.292 581.861C775.654 582.151 776.403 584.059 775.964 586.123Z" fill="white"/>
<path d="M653 626.5L664 620.5V631.5L649 639.5C649 639.5 649 635 650 632C651 629 653 626.5 653 626.5Z" fill="white"/>
<path d="M728.5 581.5L739.5 575.5V586.5L724.5 594.5C724.5 594.5 724.5 590 725.5 587C726.5 584 728.5 581.5 728.5 581.5Z" fill="white"/>
<defs>
<filter id="filter0_i_85_11" x="0" y="0" width="928" height="768" filterUnits="userSpaceOnUse" color-interpolation-filters="sRGB">
<feFlood flood-opacity="0" result="BackgroundImageFix"/>
<feBlend mode="normal" in="SourceGraphic" in2="BackgroundImageFix" result="shape"/>
<feColorMatrix in="SourceAlpha" type="matrix" values="0 0 0 0 0 0 0 0 0 0 0 0 0 0 0 0 0 0 127 0" result="hardAlpha"/>
<feOffset dy="4"/>
<feGaussianBlur stdDeviation="2"/>
<feComposite in2="hardAlpha" operator="arithmetic" k2="-1" k3="1"/>
<feColorMatrix type="matrix" values="0 0 0 0 0 0 0 0 0 0 0 0 0 0 0 0 0 0 0.25 0"/>
<feBlend mode="normal" in2="shape" result="effect1_innerShadow_85_11"/>
</filter>
</defs>
</svg>
