<svg width="895" height="650" viewBox="0 0 895 650" fill="none" xmlns="http://www.w3.org/2000/svg">
<rect x="651.439" y="495.915" width="15" height="16.9105" transform="rotate(33.9321 651.439 495.915)" fill="#18435F"/>
<rect x="726.939" y="450.915" width="15" height="16.9105" transform="rotate(33.9321 726.939 450.915)" fill="#18435F"/>
<rect x="692.373" y="474.5" width="15" height="15" transform="rotate(33.9321 692.373 474.5)" fill="#18435F"/>
<rect x="767.873" y="429.5" width="15" height="15" transform="rotate(33.9321 767.873 429.5)" fill="#18435F"/>
<rect x="368.42" y="103.256" width="10" height="7.14761" transform="rotate(-32.549 368.42 103.256)" fill="#4B667A"/>
<rect x="334.5" y="83.3804" width="10" height="7.14761" transform="rotate(-32.549 334.5 83.3804)" fill="#4B667A"/>
<path d="M332.303 65.4688L360.57 80.9346L347.042 93.3436L326.481 73.5067L326.025 71.5594L332.303 65.4688Z" fill="#18435F"/>
<path d="M394.5 55L404 61.5L393.5 67.5L391 58.5L394.5 55Z" fill="#18435F"/>
<path d="M418 72.5L409.5 72L402 70.5L409.5 64.5L420.5 70.5L418 72.5Z" fill="#18435F"/>
<path d="M377.755 96.1519C355.005 110.1 333.975 117.184 330.782 111.976C327.589 106.768 343.442 91.239 366.191 77.2914C388.941 63.3438 410.804 58.4576 412.501 60.2647C414.198 62.0718 400.504 82.2044 377.755 96.1519Z" fill="#457496"/>
<path d="M281 353.472L383 294V297.024L281 357V353.472Z" fill="#18435F"/>
<path d="M373.5 311.5L376 313L364 320L361 318.5L373.5 311.5Z" fill="#BBCFDF"/>
<path d="M360.5 304L363 305.5L351 312.5L348 311L360.5 304Z" fill="#BBCFDF"/>
<path d="M345 274L369 287.827V314L345 298.198V274Z" fill="#4B667A"/>
<path d="M345 273.835L393.331 245L418 260.176L368.662 288L345 273.835Z" fill="#96AEC2"/>
<path d="M291.43 305L315 318.843C315 318.843 311.991 327.742 311.49 329.225C310.988 330.708 310.487 335.652 310.487 335.652L310.072 349L286 334V322.5C286 322.5 286.89 315.472 287.893 313C288.896 310.528 291.43 305 291.43 305Z" fill="#4B667A"/>
<path d="M315 318.5L364 291V317L310 349L310.5 336C310.5 336 311 330.5 311.5 328.5C312 326.5 315 318.5 315 318.5Z" fill="#457496"/>
<path d="M369 287.5L425 255V281L369 314V302C369 302 369 298 369 294C369 290 369 287.5 369 287.5Z" fill="#457496"/>
<path d="M294 360.5L396 301V304L294 364V360.5Z" fill="#18435F"/>
<path d="M303.5 352.5L306 354L294 361L291 359.5L303.5 352.5Z" fill="#BBCFDF"/>
<path d="M290.5 345L293 346.5L281 353.5L278 352L290.5 345Z" fill="#BBCFDF"/>
<path d="M291.5 310L312 322C310.115 329.458 309.441 333.337 309 340L288 327.5C288 327.5 288 322 289 318C290 314 291.5 310 291.5 310Z" fill="white"/>
<path d="M286 334L310 348.5V357L286 342.689V334Z" fill="#96AEC2"/>
<path d="M291.079 333.074C291.079 334.22 291.186 335.148 290.053 335.148C288.921 335.148 288.003 334.22 288.003 333.074C288.003 331.929 287.896 331 289.028 331C290.161 331 291.079 331.929 291.079 333.074Z" fill="white"/>
<path d="M307.997 342.926C307.997 344.071 308.104 345 306.972 345C305.839 345 304.921 344.071 304.921 342.926C304.921 341.78 304.814 340.852 305.947 340.852C307.079 340.852 307.997 341.78 307.997 342.926Z" fill="white"/>
<line x1="293.5" y1="333" x2="293.5" y2="336" stroke="black"/>
<line x1="295.5" y1="334" x2="295.5" y2="337" stroke="black"/>
<line x1="297.5" y1="335" x2="297.5" y2="338" stroke="black"/>
<line x1="299.5" y1="336" x2="299.5" y2="339" stroke="black"/>
<line x1="301.5" y1="337" x2="301.5" y2="340" stroke="black"/>
<line x1="323.776" y1="332.553" x2="327.776" y2="330.553" stroke="black"/>
<path d="M317.5 320.5L327 315V328L314 335C314 335 314 330 315 327C316 324 317.5 320.5 317.5 320.5Z" fill="#18435F"/>
<line x1="335.756" y1="311.564" x2="360.756" y2="297.564" stroke="black"/>
<line x1="335.756" y1="317.564" x2="360.756" y2="303.564" stroke="black"/>
<line x1="335.756" y1="323.564" x2="360.756" y2="309.564" stroke="black"/>
<path d="M291 305L339.5 276L364 291L314.5 319L291 305Z" fill="#96AEC2"/>
<path d="M369 313L424 280V288L369 321V313Z" fill="#4B667A"/>
<path d="M310 349L365 316V324L310 357V349Z" fill="#4B667A"/>
<path d="M291 359.2L294 360.64V364L291 362.56V359.2Z" fill="#96AEC2"/>
<path d="M278 352L281 353.44V356.8L278 355.36V352Z" fill="#96AEC2"/>
<path d="M501 2H534.001L567 79.8571L549.4 111L501 2Z" fill="#4B667A"/>
<path d="M641 0H607.35L558 129H582.676L641 0Z" fill="#4B667A"/>
<path d="M650.545 111.93C650.545 116.545 648.075 119.535 643.59 119.535C641.77 119.535 640.795 119.405 638.91 118.885V104.26H642.16C647.685 104.26 650.545 106.47 650.545 111.93ZM660.1 111.54C660.1 102.115 653.535 98.02 643.135 98.02H629.875V143H638.91V124.93C641.835 125.645 643.525 125.905 646.125 125.905C654.51 125.905 660.1 119.535 660.1 111.54ZM693.276 143L694.121 136.435H675.726V98.02H666.691V143H693.276ZM729.141 98.02V123.435C729.141 132.99 725.436 136.89 718.871 136.89C711.981 136.89 708.341 133.055 708.341 123.565V98.02H699.306V124.54C699.306 137.02 705.871 143.65 718.156 143.65C730.116 143.65 737.656 137.345 737.656 125.19V98.02H729.141ZM744.782 140.53C749.267 142.805 753.752 143.65 758.497 143.65C767.987 143.65 773.902 138.84 773.902 130.585C773.902 122.33 768.312 119.535 762.982 116.74C757.457 113.815 754.467 112.19 754.467 108.68C754.467 105.495 756.807 103.805 761.032 103.805C763.827 103.805 766.882 104.78 769.742 106.08L772.212 99.84C768.637 98.15 764.347 97.37 760.382 97.37C751.932 97.37 745.107 101.595 745.107 109.85C745.107 117.975 751.347 121.225 756.482 123.955C762.137 126.945 764.542 128.7 764.542 131.95C764.542 135.59 762.007 137.345 758.302 137.345C754.662 137.345 750.827 135.98 747.317 134.16L744.782 140.53Z" fill="#4B667A"/>
<line x1="439.054" y1="571.916" x2="598.054" y2="672.916" stroke="#18435F" stroke-width="0.2"/>
<line x1="439.054" y1="584.916" x2="598.054" y2="685.916" stroke="#18435F" stroke-width="0.2"/>
<path d="M477.312 307.246V357.844L412.898 319.81L412.846 319.779L412.795 319.811L391.565 332.85L381.205 326.736V251.086L477.312 307.246Z" fill="#96AEC2" stroke="#18435F" stroke-width="0.2"/>
<path d="M518.516 309.399L518.466 309.428V309.485V335.67L477.512 357.851V307.745L610.024 230.063L610.52 255.501L518.516 309.399Z" fill="#457496" stroke="#18435F" stroke-width="0.2"/>
<path d="M535.816 155.999V233.634L474.343 196.782L474.292 196.751L474.24 196.782L462.21 204.034L461.959 113.296L535.816 155.999Z" fill="#96AEC2" stroke="#18435F" stroke-width="0.2"/>
<path d="M477.459 307.5L381.302 251.266L474.211 196.125L536.23 233.175L536.28 233.206L536.331 233.176L577.058 209.576L610.426 230.179L477.459 307.5Z" fill="#F9FAFE" stroke="#18435F" stroke-width="0.2"/>
<path d="M410.33 447.909L301.199 384.398L412.502 319.432L477.254 357.579L477.303 357.608L477.352 357.58L518.574 335.065L561.817 359.675L410.33 447.909Z" fill="#F9FAFE" stroke="#18435F" stroke-width="0.2"/>
<path d="M376.109 453.673V453.615L376.059 453.586L301.1 410.282V384.295L410.4 447.979L409.918 479.249L376.109 460.896V453.673Z" fill="#96AEC2" stroke="#18435F" stroke-width="0.2"/>
<path d="M542.408 397.461L542.36 397.49V397.546V402.567L410.117 479.725L410.369 448.026L561.917 359.994V385.519L542.408 397.461Z" fill="#457496" stroke="#18435F" stroke-width="0.2"/>
<path d="M662.389 443.354L662.025 393.018L770.732 330.29V382.067L662.389 443.354Z" fill="#457496" stroke="#18435F" stroke-width="0.2"/>
<path d="M561.479 359.664V359.606L561.428 359.578L518.163 334.874V309.04L661.988 392.82L662.347 443.871L561.479 385.43V359.664Z" fill="#96AEC2" stroke="#18435F" stroke-width="0.2"/>
<path d="M661.964 393.056L518.26 309.192L611.07 254.232L649.799 277.942L649.849 277.973L649.901 277.944L666.808 268.282L770.782 330.095L661.964 393.056Z" fill="#F9FAFE" stroke="#18435F" stroke-width="0.2"/>
<path d="M609.589 229.772V229.715L609.541 229.686L576.305 209.539V183.549L650.72 226.205L650.356 278.165L609.589 253.637V229.772Z" fill="#96AEC2" stroke="#18435F" stroke-width="0.2"/>
<path d="M666.748 268.827L666.698 268.798L666.648 268.827L650.324 278.102L650.681 226.489L718.17 188.08L718.528 288.659L709.674 293.999L666.748 268.827Z" fill="#457496" stroke="#18435F" stroke-width="0.2"/>
<path d="M576.548 184.327L576.498 184.356V184.414V210.421L536.016 233.638V156.347L609.536 114.263L609.62 165.246L576.548 184.327Z" fill="#457496" stroke="#18435F" stroke-width="0.2"/>
<path d="M576.889 183.861L609.202 165.052L609.252 165.023V164.965V150.972L632.691 137.62L718.428 187.852L650.671 226.496L576.889 183.861Z" fill="white" stroke="#18435F" stroke-width="0.2"/>
<path d="M462.055 113.124L536.169 70.1161L609.442 114.091L536.17 158.065L462.055 113.124Z" fill="#F9FAFE" stroke="#18435F" stroke-width="0.2"/>
<path d="M734.929 288.046V252.883L774.331 275.161V311.042L734.929 288.046Z" fill="#96AEC2" stroke="#18435F" stroke-width="0.2"/>
<path d="M774.532 311.044V275.745L806.734 257.385V292.683L774.532 311.044Z" fill="#64829F" stroke="#18435F" stroke-width="0.2"/>
<path d="M774.509 275.998L736.153 253.509L767.519 236.625L804.835 258.348L774.509 275.998Z" fill="white" stroke="#18435F" stroke-width="0.2"/>
<path d="M767.131 236.771L735.967 253.948L734.979 252.96L767.131 234.881V236.771Z" fill="#64829F" stroke="#18435F" stroke-width="0.2"/>
<path d="M767.331 236.813V234.883L806.623 257.468L804.569 258.495L767.331 236.813Z" fill="#96AEC2" stroke="#18435F" stroke-width="0.2"/>
<path d="M411.175 518.208C411.239 518.131 411.239 518.131 411.239 518.131L411.238 518.13L411.236 518.128L411.226 518.121L411.19 518.09L411.048 517.972L410.936 517.879C410.822 517.784 410.677 517.664 410.506 517.521C410.037 517.13 409.365 516.569 408.551 515.887C406.922 514.522 404.724 512.673 402.448 510.733C400.171 508.794 397.816 506.764 395.872 505.039C393.926 503.313 392.399 501.896 391.772 501.18C391.134 500.45 389.819 499.339 388.151 498.054C386.481 496.767 384.451 495.3 382.376 493.856C378.228 490.968 373.896 488.169 371.907 487.083C369.919 485.998 363.951 483.197 358.483 480.668C355.749 479.403 353.138 478.206 351.212 477.325C350.248 476.885 349.456 476.523 348.904 476.272L348.266 475.981L348.219 475.96L376.588 459.612L411.127 478.597L411.176 478.624L411.225 478.596L543.19 402.116L637.494 457.216L473.91 551.31L473.906 551.31C473.886 551.309 473.854 551.309 473.813 551.308C473.729 551.305 473.604 551.3 473.436 551.29C473.102 551.271 472.599 551.232 471.93 551.153C470.593 550.995 468.59 550.68 465.934 550.05C460.621 548.788 452.693 546.264 442.238 541.215C431.788 536.167 424.04 530.398 418.906 525.892C416.339 523.639 414.425 521.701 413.153 520.328C412.517 519.641 412.042 519.095 411.726 518.721C411.568 518.534 411.45 518.39 411.371 518.293C411.347 518.263 411.326 518.238 411.31 518.217C411.299 518.204 411.29 518.193 411.283 518.183L411.261 518.155L411.256 518.149L411.254 518.147L411.254 518.147C411.254 518.146 411.254 518.146 411.175 518.208ZM411.175 518.208L411.239 518.131L411.247 518.138L411.254 518.146L411.175 518.208Z" fill="#417DA7" stroke="#18435F" stroke-width="0.2"/>
<path d="M542.316 402.62V397.796L641.03 455.402L637.231 457.809L542.316 402.62Z" fill="#96AEC2" stroke="#18435F" stroke-width="0.2"/>
<line x1="376.633" y1="452.855" x2="305.048" y2="492.088" stroke="#18435F" stroke-width="0.2"/>
<path d="M637.738 457.127L439.249 572.553" stroke="#18435F" stroke-width="0.2"/>
<line x1="376.634" y1="459.638" x2="305.049" y2="500.087" stroke="#18435F" stroke-width="0.2"/>
<path d="M568.9 109C568.9 109.078 568.858 109.219 568.756 109.425C568.656 109.627 568.507 109.878 568.309 110.172C567.913 110.759 567.326 111.51 566.567 112.367C565.05 114.081 562.847 116.212 560.11 118.292C554.634 122.453 547.03 126.4 538.5 126.4C529.969 126.4 522.115 122.452 516.388 118.29C513.526 116.21 511.198 114.079 509.587 112.365C508.781 111.508 508.156 110.756 507.732 110.169C507.521 109.875 507.361 109.624 507.254 109.423C507.145 109.216 507.1 109.077 507.1 109C507.1 108.934 507.134 108.856 507.229 108.766C507.324 108.675 507.471 108.581 507.673 108.486C508.076 108.295 508.676 108.109 509.458 107.93C511.021 107.572 513.286 107.25 516.089 106.978C521.695 106.436 529.442 106.1 538 106.1C546.558 106.1 554.305 106.436 559.911 106.978C562.714 107.25 564.979 107.572 566.542 107.93C567.324 108.109 567.924 108.295 568.327 108.486C568.529 108.581 568.676 108.675 568.771 108.766C568.866 108.856 568.9 108.934 568.9 109Z" fill="#18435F" stroke="#18435F" stroke-width="0.2"/>
<path d="M506.234 108.9L538.498 75.1472L568.776 108.9H506.234Z" fill="#18435F" stroke="#18435F" stroke-width="0.2"/>
<path d="M569 109C569 110.657 555.621 126.5 538.5 126.5C521.379 126.5 506 110.657 506 109C506 107.343 520.879 106 538 106C555.121 106 569 107.343 569 109Z" fill="#457496"/>
<path d="M538.5 75L569 109H506L538.5 75Z" fill="#457496"/>
<line x1="185.053" y1="416.915" x2="305.053" y2="491.915" stroke="#18435F" stroke-width="0.2"/>
<line x1="182.054" y1="421.916" x2="305.054" y2="499.916" stroke="#18435F" stroke-width="0.2"/>
<g opacity="0.9">
<path d="M535.841 69.6385C531.247 68.9251 526.408 66.1677 522.772 62.4691C519.132 58.7673 516.742 54.1712 516.959 49.8062C517.395 41.0115 525.88 31.149 539.345 32.0042C543.34 32.258 548.566 33.4757 552.815 36.5442C557.05 39.6027 560.334 44.5112 560.454 52.2038C560.564 59.1913 556.742 63.8969 551.715 66.691C546.675 69.4919 540.447 70.354 535.841 69.6385Z" stroke="white" stroke-width="0.6"/>
<path d="M525.07 50.5135C525.015 45.8652 526.934 40.6371 529.981 36.4391C533.03 32.2373 537.167 29.1209 541.508 28.6127C550.254 27.5887 561.384 34.3269 562.766 47.7475C563.176 51.7296 562.839 57.0849 560.516 61.783C558.199 66.4657 553.901 70.5153 546.335 71.9061C539.461 73.1693 534.189 70.1784 530.602 65.6821C527.006 61.1747 525.126 55.175 525.07 50.5135Z" stroke="white" stroke-width="0.6"/>
<path d="M557.381 45.2013C557.381 49.85 555.399 55.0547 552.302 59.2158C549.203 63.3807 545.028 66.4472 540.682 66.9033C531.924 67.8221 520.876 60.9509 519.655 47.5147C519.292 43.5279 519.694 38.177 522.074 33.5072C524.446 28.8526 528.792 24.8549 536.375 23.555C543.263 22.3744 548.5 25.4284 552.032 29.9674C555.573 34.5177 557.381 40.5395 557.381 45.2013Z" stroke="white" stroke-width="0.6"/>
<path d="M533.56 72.1826C528.921 72.4904 523.597 70.8572 519.24 68.0428C514.879 65.2259 511.543 61.2632 510.8 56.9564C509.303 48.2791 515.428 36.8004 528.754 34.6923C532.708 34.0668 538.074 34.1129 542.891 36.1786C547.692 38.2375 551.969 42.3098 553.768 49.79C555.402 56.5847 552.701 62.0117 548.406 65.8369C544.1 69.6717 538.211 71.874 533.56 72.1826Z" stroke="white" stroke-width="0.6"/>
</g>
<path d="M478.505 503.882L434.191 473.011L518.471 428.129L545.853 464.97L478.505 503.882Z" fill="white" stroke="#18435F" stroke-width="0.2"/>
<path d="M393.587 368.19L383 361.91V349.831L393.587 356.112V368.19Z" fill="#96AEC2"/>
<path d="M404.174 361.91L393.587 368.19V356.112L404.174 349.831V361.91Z" fill="#457496"/>
<path d="M394.092 345L404.174 349.831L393.587 356.112L383 349.831L394.092 345Z" fill="#BBCFDF"/>
<path d="M404.935 368.19L398 364.076V356.165L404.935 360.279V368.19Z" fill="#96AEC2"/>
<path d="M411.87 364.076L404.935 368.19V360.279L411.87 356.165V364.076Z" fill="#457496"/>
<path d="M405.265 353L411.869 356.165L404.935 360.279L398 356.165L405.265 353Z" fill="#BBCFDF"/>
<path d="M396.935 374.19L390 370.076V362.165L396.935 366.279V374.19Z" fill="#96AEC2"/>
<path d="M403.87 370.076L396.935 374.19V366.279L403.87 362.165V370.076Z" fill="#457496"/>
<path d="M397.265 359L403.869 362.165L396.935 366.279L390 362.165L397.265 359Z" fill="#BBCFDF"/>
<path d="M417.5 376.19L406 372.076V364.165L417.5 368.279V376.19Z" fill="#96AEC2"/>
<path d="M429 372.076L417.5 376.19V368.279L429 364.165V372.076Z" fill="#457496"/>
<path d="M418.048 361L429 364.165L417.5 368.279L406 364.165L418.048 361Z" fill="#BBCFDF"/>
<path d="M546.377 372.651L562.877 362.944L566.869 365.163L550.369 374.868L546.377 372.651ZM551.381 377.152L567.88 367.445L571.872 369.665L555.373 379.369L551.381 377.152ZM575.372 374.165L558.873 383.869L554.881 381.652L571.38 371.945L575.372 374.165ZM558.881 386.651L575.381 376.944L579.373 379.163L562.873 388.868L558.881 386.651ZM582.373 383.663L565.873 393.368L561.881 391.151L578.381 381.444L582.373 383.663ZM566.381 395.652L582.88 385.945L586.872 388.165L570.373 397.869L566.381 395.652ZM591.372 393.163L574.872 402.868L570.88 400.651L587.379 390.944L591.372 393.163ZM574.881 405.151L591.381 395.444L595.373 397.663L578.873 407.368L574.881 405.151ZM595.379 399.944L599.372 402.163L582.872 411.868L578.88 409.651L595.379 399.944ZM586.373 416.869L582.381 414.652L598.88 404.945L602.872 407.165L586.373 416.869Z" fill="#F9FAFE" stroke="#456276" stroke-width="0.5"/>
<path d="M595.377 241.651L611.877 231.944L615.869 234.163L599.369 243.868L595.377 241.651ZM600.381 246.152L616.88 236.445L620.872 238.665L604.373 248.369L600.381 246.152ZM624.372 243.165L607.873 252.869L603.881 250.652L620.38 240.945L624.372 243.165ZM607.881 255.651L624.381 245.944L628.373 248.163L611.873 257.868L607.881 255.651ZM631.373 252.663L614.873 262.368L610.881 260.151L627.381 250.444L631.373 252.663ZM615.381 264.652L631.88 254.945L635.872 257.165L619.373 266.869L615.381 264.652ZM640.372 262.163L623.872 271.868L619.88 269.651L636.379 259.944L640.372 262.163ZM623.881 274.151L640.381 264.444L644.373 266.663L627.873 276.368L623.881 274.151ZM644.379 268.944L648.372 271.163L631.872 280.868L627.88 278.651L644.379 268.944ZM635.373 285.869L631.381 283.652L647.88 273.945L651.872 276.165L635.373 285.869Z" fill="#F9FAFE" stroke="#456276" stroke-width="0.5"/>
<path d="M513.562 313.556L516.976 312.276L532.479 321.481L529.014 323.214L513.562 313.556ZM509.562 318.056L512.976 316.776L528.479 325.981L525.014 327.714L509.562 318.056ZM505.562 322.556L508.976 321.276L524.479 330.481L521.014 332.214L505.562 322.556ZM501.562 327.556L504.976 326.276L520.479 335.481L517.014 337.214L501.562 327.556ZM497.562 332.056L500.976 330.776L516.479 339.981L513.014 341.714L497.562 332.056ZM493.562 336.056L496.976 334.776L512.479 343.981L509.014 345.714L493.562 336.056ZM489.562 341.056L492.976 339.776L508.479 348.981L505.014 350.714L489.562 341.056ZM485.562 346.056L488.976 344.776L504.479 353.981L501.014 355.714L485.562 346.056ZM481.562 350.056L484.976 348.776L500.479 357.981L497.014 359.714L481.562 350.056ZM477.991 355.508L480.998 353.789L496.479 362.981L493.012 364.714L477.991 355.508Z" fill="#F9FAFE" stroke="#1E4760" stroke-width="0.5"/>
<path d="M574.562 187.556L577.976 186.276L593.479 195.481L590.014 197.214L574.562 187.556ZM570.562 192.056L573.976 190.776L589.479 199.981L586.014 201.714L570.562 192.056ZM566.562 196.556L569.976 195.276L585.479 204.481L582.014 206.214L566.562 196.556ZM562.562 201.556L565.976 200.276L581.479 209.481L578.014 211.214L562.562 201.556ZM558.562 206.056L561.976 204.776L577.479 213.981L574.014 215.714L558.562 206.056ZM554.562 210.056L557.976 208.776L573.479 217.981L570.014 219.714L554.562 210.056ZM550.562 215.056L553.976 213.776L569.479 222.981L566.014 224.714L550.562 215.056ZM546.562 220.056L549.976 218.776L565.479 227.981L562.014 229.714L546.562 220.056ZM542.562 224.056L545.976 222.776L561.479 231.981L558.014 233.714L542.562 224.056ZM538.521 229.519L541.99 227.785L557.479 236.981L554.01 238.715L538.521 229.519Z" fill="#F9FAFE" stroke="#1E4760" stroke-width="0.5"/>
<path d="M349.587 388.19L339 381.91V369.831L349.587 376.112V388.19Z" fill="#96AEC2"/>
<path d="M360.174 381.91L349.587 388.19V376.112L360.174 369.831V381.91Z" fill="#457496"/>
<path d="M350.092 365L360.174 369.831L349.587 376.112L339 369.831L350.092 365Z" fill="#BBCFDF"/>
<path d="M360.935 388.19L354 384.076V376.165L360.935 380.279V388.19Z" fill="#96AEC2"/>
<path d="M367.87 384.076L360.935 388.19V380.279L367.87 376.165V384.076Z" fill="#457496"/>
<path d="M361.265 373L367.869 376.165L360.935 380.279L354 376.165L361.265 373Z" fill="#BBCFDF"/>
<path d="M352.935 394.19L346 390.076V382.165L352.935 386.279V394.19Z" fill="#96AEC2"/>
<path d="M359.87 390.076L352.935 394.19V386.279L359.87 382.165V390.076Z" fill="#457496"/>
<path d="M353.265 379L359.869 382.165L352.935 386.279L346 382.165L353.265 379Z" fill="#BBCFDF"/>
<path d="M373.587 377.19L363 370.91V358.831L373.587 365.112V377.19Z" fill="#96AEC2"/>
<path d="M384.174 370.91L373.587 377.19V365.112L384.174 358.831V370.91Z" fill="#457496"/>
<path d="M374.092 354L384.174 358.831L373.587 365.112L363 358.831L374.092 354Z" fill="#BBCFDF"/>
<path d="M384.935 377.19L378 373.076V365.165L384.935 369.279V377.19Z" fill="#96AEC2"/>
<path d="M391.87 373.076L384.935 377.19V369.279L391.87 365.165V373.076Z" fill="#457496"/>
<path d="M385.265 362L391.869 365.165L384.935 369.279L378 365.165L385.265 362Z" fill="#BBCFDF"/>
<path d="M376.935 383.19L370 379.076V371.165L376.935 375.279V383.19Z" fill="#96AEC2"/>
<path d="M383.87 379.076L376.935 383.19V375.279L383.87 371.165V379.076Z" fill="#457496"/>
<path d="M377.265 368L383.869 371.165L376.935 375.279L370 371.165L377.265 368Z" fill="#BBCFDF"/>
<path d="M397.5 385.19L386 381.076V373.165L397.5 377.279V385.19Z" fill="#96AEC2"/>
<path d="M409 381.076L397.5 385.19V377.279L409 373.165V381.076Z" fill="#457496"/>
<path d="M398.048 370L409 373.165L397.5 377.279L386 373.165L398.048 370Z" fill="#BBCFDF"/>
<path d="M373.5 396.19L362 392.076V384.165L373.5 388.279V396.19Z" fill="#96AEC2"/>
<path d="M385 392.076L373.5 396.19V388.279L385 384.165V392.076Z" fill="#457496"/>
<path d="M374.048 381L385 384.165L373.5 388.279L362 384.165L374.048 381Z" fill="#BBCFDF"/>
<path d="M374.587 411.19L364 404.91V392.831L374.587 399.112V411.19Z" fill="#96AEC2"/>
<path d="M385.174 404.91L374.587 411.19V399.112L385.174 392.831V404.91Z" fill="#457496"/>
<path d="M375.092 388L385.174 392.831L374.587 399.112L364 392.831L375.092 388Z" fill="#BBCFDF"/>
<path d="M385.935 411.19L379 407.076V399.165L385.935 403.279V411.19Z" fill="#96AEC2"/>
<path d="M392.87 407.076L385.935 411.19V403.279L392.87 399.165V407.076Z" fill="#457496"/>
<path d="M386.265 396L392.869 399.165L385.935 403.279L379 399.165L386.265 396Z" fill="#BBCFDF"/>
<path d="M377.935 417.19L371 413.076V405.165L377.935 409.279V417.19Z" fill="#96AEC2"/>
<path d="M384.87 413.076L377.935 417.19V409.279L384.87 405.165V413.076Z" fill="#457496"/>
<path d="M378.265 402L384.869 405.165L377.935 409.279L371 405.165L378.265 402Z" fill="#BBCFDF"/>
<path d="M398.5 419.19L387 415.076V407.165L398.5 411.279V419.19Z" fill="#96AEC2"/>
<path d="M410 415.076L398.5 419.19V411.279L410 407.165V415.076Z" fill="#457496"/>
<path d="M399.048 404L410 407.165L398.5 411.279L387 407.165L399.048 404Z" fill="#BBCFDF"/>
<path d="M428.5 317.716V288.869L464.5 309.788V339.121L428.5 317.716Z" fill="#F9FAFE" stroke="#18435F"/>
<path d="M452.5 316.631V310.847L460.5 315.257V321.144L452.5 316.631Z" fill="#F9FAFE" stroke="#18435F"/>
<path d="M426 283L466.5 306.5V310.5L426 287V283Z" fill="#18435F"/>
<path d="M433 299L450 309.255V311L433 300.745V299Z" fill="#18435F"/>
<path d="M433 303L450 313.255V315L433 304.745V303Z" fill="#18435F"/>
<path d="M433 308L450 318.255V320L433 309.745V308Z" fill="#18435F"/>
<path d="M685.5 283.716V254.869L721.5 275.788V305.121L685.5 283.716Z" fill="#F9FAFE" stroke="#18435F"/>
<path d="M683 249L723.5 272.5V276.5L683 253V249Z" fill="#18435F"/>
<path d="M414.949 247.559L465.22 217.939L536.179 256.73L484.336 288.18L414.949 247.559Z" stroke="#457496" stroke-width="4"/>
<path d="M460.029 244.372L470.496 238.206L485.155 246.219L474.365 252.765L460.029 244.372ZM443.662 235.693L454.128 229.526L468.788 237.54L457.998 244.086L443.662 235.693Z" fill="#457496" stroke="#457496" stroke-width="0.5"/>
<path d="M474.859 236.371L485.326 230.204L499.985 238.218L489.195 244.764L474.859 236.371ZM458.996 227.494L468.96 221.525L483.619 229.539L473.494 235.709L458.996 227.494Z" fill="#457496" stroke="#457496" stroke-width="0.5"/>
<path d="M447.494 252.021L457.96 245.854L472.62 253.868L461.83 260.414L447.494 252.021Z" fill="#457496" stroke="#457496" stroke-width="0.5"/>
<path d="M435.494 260.021L445.96 253.854L460.62 261.868L449.83 268.414L435.494 260.021Z" fill="#457496" stroke="#457496" stroke-width="0.5"/>
<path d="M431.494 243.213L441.96 237.046L456.62 245.06L445.83 251.606L431.494 243.213Z" fill="#457496" stroke="#457496" stroke-width="0.5"/>
<path d="M419.494 251.213L429.96 245.046L444.62 253.06L433.83 259.606L419.494 251.213Z" fill="#457496" stroke="#457496" stroke-width="0.5"/>
<path d="M456.494 270.021L466.96 263.854L481.62 271.868L470.83 278.414L456.494 270.021Z" fill="#457496" stroke="#457496" stroke-width="0.5"/>
<path d="M473.475 280.01L483.396 273.523L496.47 280.611L486.236 287.48L473.475 280.01Z" fill="#457496" stroke="#457496" stroke-width="0.5"/>
<path d="M513.406 244.028C523.267 246.297 520.477 267.397 514.14 270.062C497.582 278.298 483.26 269.221 481.333 264.639C477.969 256.641 482.052 252.701 488.39 250.036C494.727 247.371 511.479 239.446 513.406 244.028Z" fill="#457496"/>
<path d="M406.156 247.154L464.253 212.922L545.014 257.072L485.141 293.393L406.156 247.154Z" stroke="#18435F"/>
<path d="M485.018 201.061C486.747 207.301 485.945 210.074 485.395 211.062C485.125 211.546 484.841 211.759 484.647 211.865C484.443 211.976 484.284 211.997 484.257 212.001C484.252 212.001 484.251 212.001 484.254 212.001M485.018 201.061L484.254 212.001H484.254M485.018 201.061C482.819 196.333 480.42 193.765 478.332 192.358C476.284 190.978 474.256 190.527 472.423 190.501C472.318 190.697 472.153 191.091 472.03 191.785C471.674 193.795 471.919 196.929 472.973 200.413C474.752 204.338 476.938 207.342 479.082 209.313C481.335 211.384 483.171 212.001 484.254 212.001M485.018 201.061L484.254 212.001" fill="#FFFBFD" stroke="#18435F" stroke-width="9"/>
<path d="M476.19 191.537C479.06 193.471 481.939 196.756 484.406 202.172C486.377 209.091 485.81 213.175 484.513 215.505C483.22 217.826 481.151 218.499 479.877 218.498C477.425 218.498 474.665 217.207 471.998 214.755C469.343 212.314 466.822 208.758 464.845 204.322C463.617 200.377 463.203 196.473 463.715 193.584C463.971 192.137 464.453 190.985 465.141 190.202C465.815 189.435 466.709 188.997 467.877 188.997C470.417 188.997 473.316 189.601 476.19 191.537Z" fill="#FFFBFD" stroke="#18435F"/>
<path d="M466 189L470 186.5L471 189H468H466Z" fill="#18435F"/>
<path d="M483.667 216H485H486.5L482 218.5L483.667 216Z" fill="#18435F"/>
<path d="M477.075 243.299L466.146 224.528L466.078 224.411L466.003 224.3L466.003 224.3L466.002 224.3L466.002 224.299L466.002 224.298L465.994 224.287L465.96 224.236C465.928 224.189 465.879 224.116 465.815 224.018C465.686 223.823 465.494 223.53 465.247 223.148C464.755 222.385 464.048 221.268 463.201 219.874C461.506 217.081 459.266 213.196 457.078 208.819C453.441 201.546 452.632 196.866 452.142 194.039C452.064 193.588 451.994 193.184 451.922 192.824C451.761 192.015 451.549 189.351 451.655 186.209C451.763 182.997 452.182 180.155 452.844 178.665C453.536 177.107 454.859 175.532 456.206 174.24C456.851 173.623 457.443 173.125 457.869 172.785C458.08 172.617 458.248 172.49 458.355 172.41C458.409 172.37 458.448 172.342 458.47 172.326L458.485 172.315L458.487 172.314L458.489 172.312L458.489 172.312L458.49 172.312L458.564 172.26L458.569 172.256C458.611 172.23 458.703 172.174 458.848 172.101C459.165 171.94 459.736 171.693 460.573 171.489C462.22 171.089 465.045 170.822 469.173 171.908C473.827 173.134 476.673 174.153 479.158 175.713C481.638 177.269 484.02 179.529 487.411 183.65C493.863 191.489 495.875 198.329 497.307 204.075C497.927 206.561 498.185 210.502 498.125 214.577C498.064 218.632 497.698 222.307 497.284 224.172C496.976 225.557 496.032 227.244 494.599 229.078C493.207 230.861 491.624 232.451 490.362 233.716C489.995 234.083 488.859 234.991 487.05 236.32C485.343 237.574 483.276 239.03 481.267 240.423C479.769 241.462 478.313 242.458 477.075 243.299Z" stroke="#18435F" stroke-width="8"/>
<path d="M465.128 216.285C470.926 223.491 474.089 225.293 476.725 225.893C479.361 226.494 481.469 227.094 483.578 227.094C485.687 227.094 487.795 226.494 489.377 224.692C490.959 222.891 493.5 219 495.5 208C497.5 197 493.594 230.697 493.594 230.697L477.78 242.107C477.78 242.107 459.329 209.079 465.128 216.285Z" fill="#18435F"/>
<rect x="-0.1" y="0.1" width="8.8" height="7.8" transform="matrix(-1 0 0 1 561.8 445)" fill="#96AEC2" stroke="#18435F" stroke-width="0.2"/>
<path d="M421.154 497.595L478.004 495.6L478.027 495.599L478.048 495.588L488.9 489.668V495.5V495.674L489.05 495.586L568.874 449.189L565.907 471.438L480.475 521.399L431.065 518.903L421.154 497.595Z" fill="#457496" stroke="#18435F" stroke-width="0.2"/>
<path d="M561.052 448.915L561.195 449.002L561.05 449.086L489.1 491.057V495.326L568.806 448.997L554.6 440.18V444.944L561.052 448.915Z" fill="#BBCFDF" stroke="#18435F" stroke-width="0.2"/>
<path d="M438.791 461.507L430.449 466.414L430.409 466.438L430.401 466.484L425.901 493.984L425.882 494.105L426.004 494.1L476.004 492.1L476.028 492.099L476.049 492.087L484.997 487.116L488.802 489.494L477.973 495.401L421.117 497.396L426.092 464.564L435.002 459.613L438.791 461.507Z" fill="#BBCFDF" stroke="#18435F" stroke-width="0.2"/>
<path d="M430.6 473.816V466.557L438.9 461.675V468.446L430.6 473.816Z" fill="#96AEC2" stroke="#18435F" stroke-width="0.2"/>
<path d="M538.5 75L569.5 109.5C569.5 109.5 566 114.5 556.5 121C547 127.5 539 126.5 539 126.5L538.5 75Z" fill="#18435F"/>
<path d="M426 494L430.5 466.5V474L427.5 494H426Z" fill="#96AEC2"/>
<path d="M430.592 474.059L439.004 468.616L478.785 490.496L475.974 491.901L427.617 493.895L430.592 474.059Z" fill="#BBCFDF" stroke="#18435F" stroke-width="0.2"/>
<path d="M439.1 468.323V463.558L471.4 445.172V448.943L439.1 468.323Z" fill="#BBCFDF" stroke="#18435F" stroke-width="0.2"/>
<path d="M444 471.383L439.194 468.5L462.9 454.177V459.944L444 471.383Z" fill="#96AEC2" stroke="#18435F" stroke-width="0.2"/>
<path d="M463.1 454.169V470.941L489.4 485.331V468.559L463.1 454.169Z" fill="#96AEC2" stroke="#18435F" stroke-width="0.2"/>
<path d="M489.6 485.324V468.559L517.9 452.671V468.443L489.6 485.324Z" fill="#457496" stroke="#18435F" stroke-width="0.2"/>
<path d="M463.203 453.997L471.501 449.115L498.286 463.995L489.502 468.387L463.203 453.997Z" fill="#BBCFDF" stroke="#18435F" stroke-width="0.2"/>
<path d="M511 447.5V456.5L518 452.5L511 447.5Z" fill="#BBCFDF"/>
<path d="M471.6 448.942V433.169L497.9 447.559V463.828L471.6 448.942Z" fill="#96AEC2" stroke="#18435F" stroke-width="0.2"/>
<path d="M498.1 463.827V447.554L510.9 439.185V456.442L498.1 463.827Z" fill="#457496" stroke="#18435F" stroke-width="0.2"/>
<path d="M471.713 433.002L485.999 425.613L510.805 439.008L497.995 447.384L471.713 433.002Z" fill="#BBCFDF" stroke="#18435F" stroke-width="0.2"/>
<path d="M536.1 463.328V436.057L554.4 425.176V452.942L536.1 463.328Z" fill="#457496" stroke="#18435F" stroke-width="0.2"/>
<path d="M535.999 435.884L500.705 415.503L519.998 405.115L554.302 425.001L535.999 435.884Z" fill="#96AEC2" stroke="#18435F" stroke-width="0.2"/>
<path d="M511.1 439V438.939L511.046 438.911L500.6 433.439V415.673L535.9 436.058V463.338L518.1 454.438V452.5V452.448L518.058 452.418L511.1 447.49V439Z" fill="#96AEC2" stroke="#18435F" stroke-width="0.2"/>
<path d="M521.1 418.061V410.671L530.9 416.182V424.811L521.1 418.061Z" fill="#96AEC2" stroke="#18435F" stroke-width="0.2"/>
<path d="M531.1 424.832V416.427L536.9 413.172V421.611L531.1 424.832Z" fill="#457496" stroke="#18435F" stroke-width="0.2"/>
<path d="M521.193 410.504L531.001 416.689L536.802 413.118L526.483 407.422L521.193 410.504Z" fill="#BBCFDF" stroke="#18435F" stroke-width="0.2"/>
<path d="M505.102 433.299L505.47 420.172L531.898 435.701L531.53 448.828L505.102 433.299Z" fill="#18435F" stroke="#457496" stroke-width="0.2"/>
<path d="M624.1 193.943V160.676L654.9 179.057V212.324L624.1 193.943Z" fill="#96AEC2" stroke="#18435F" stroke-width="0.2"/>
<path d="M685.4 194.443V161.175L655.1 179.057V212.325L685.4 194.443Z" fill="#457496" stroke="#18435F" stroke-width="0.2"/>
<path d="M624.199 160.502L654.999 143.115L685.303 161L655 178.884L624.199 160.502Z" fill="#18435F" stroke="#18435F" stroke-width="0.2"/>
<line x1="605.5" y1="317" x2="605.5" y2="334" stroke="#18435F"/>
<line x1="632.5" y1="332" x2="632.5" y2="349" stroke="#18435F"/>
<line x1="675.5" y1="305" x2="675.5" y2="322" stroke="#18435F"/>
<path d="M632.494 332.267L605.405 316.999L650.502 291.229L675.607 305.012L632.494 332.267Z" fill="#18435F" stroke="#18435F" stroke-width="0.4"/>
<path d="M609.5 323L609.5 340" stroke="black"/>
<line x1="624.5" y1="331" x2="624.5" y2="340" stroke="black"/>
<line x1="618.5" y1="329" x2="618.5" y2="335" stroke="black"/>
<path d="M616.5 328L625 331L617.5 335L609.5 331L616.5 328Z" fill="#18435F"/>
<path d="M617.5 326.755L617.5 344.755" stroke="black"/>
<path d="M609 322L618 326.235V330.5L609 326.235V322Z" fill="#18435F"/>
<line x1="672.5" y1="314" x2="672.5" y2="333" stroke="black"/>
<line x1="657.5" y1="333" x2="657.5" y2="323" stroke="black"/>
<path d="M656 323L664 318.5L672 322.5L664 327.5L656 323Z" fill="#18435F"/>
<path d="M663 318.5L672 314V317.5L663 323V318.5Z" fill="#18435F"/>
<line x1="654" y1="325" x2="654" y2="344" stroke="black"/>
<line x1="639" y1="344" x2="639" y2="334" stroke="black"/>
<path d="M637.5 334L645.5 329.5L653.5 333.5L645.5 338.5L637.5 334Z" fill="#18435F"/>
<path d="M644.5 329.5L653.5 325V328.5L644.5 334V329.5Z" fill="#18435F"/>
<line x1="645" y1="348" x2="645" y2="330" stroke="black"/>
<line x1="663.5" y1="337" x2="663.5" y2="319" stroke="black"/>
<line x1="397.5" y1="387" x2="397.5" y2="404" stroke="#18435F"/>
<line x1="424.5" y1="402" x2="424.5" y2="419" stroke="#18435F"/>
<line x1="467.5" y1="375" x2="467.5" y2="392" stroke="#18435F"/>
<path d="M424.494 402.267L397.405 386.999L442.502 361.229L467.607 375.012L424.494 402.267Z" fill="#18435F" stroke="#18435F" stroke-width="0.4"/>
<line y1="-0.5" x2="10" y2="-0.5" transform="matrix(0 1 1 0 750 324)" stroke="#18435F"/>
<line y1="-0.5" x2="9" y2="-0.5" transform="matrix(0 1 1 0 736 330)" stroke="#18435F"/>
<line y1="-0.5" x2="9" y2="-0.5" transform="matrix(0 1 1 0 715 317)" stroke="#18435F"/>
<path d="M736.9 331.767L751.598 323.408L727.005 309.23L713.391 316.771L736.9 331.767Z" fill="#96AEC2" stroke="#18435F" stroke-width="0.4"/>
<path d="M737 320.738C737 320.899 735.301 322.445 733.127 322.445C730.953 322.445 729 320.899 729 320.738C729 320.576 730.889 320.445 733.063 320.445C735.238 320.445 737 320.576 737 320.738Z" fill="#457496"/>
<path d="M733.127 316.445L737 320.445H729L733.127 316.445Z" fill="#457496"/>
<g opacity="0.9">
<path d="M732.53 315.542C731.994 315.458 731.425 315.135 730.995 314.698C730.565 314.261 730.29 313.725 730.315 313.225C730.366 312.203 731.355 311.045 732.937 311.146C733.41 311.176 734.025 311.32 734.523 311.68C735.016 312.036 735.4 312.607 735.414 313.511C735.427 314.322 734.986 314.868 734.397 315.195C733.804 315.524 733.07 315.626 732.53 315.542Z" stroke="#18435F" stroke-width="0.2"/>
<path d="M731.29 313.306C731.284 312.764 731.508 312.149 731.868 311.653C732.229 311.156 732.712 310.796 733.209 310.738C734.225 310.619 735.53 311.404 735.693 312.981C735.741 313.452 735.701 314.082 735.429 314.633C735.159 315.178 734.659 315.651 733.77 315.815C732.973 315.961 732.361 315.616 731.941 315.09C731.518 314.559 731.297 313.852 731.29 313.306Z" stroke="#18435F" stroke-width="0.2"/>
<path d="M735.045 312.668C735.045 313.21 734.813 313.823 734.448 314.314C734.081 314.807 733.593 315.16 733.096 315.213C732.078 315.319 730.783 314.519 730.639 312.94C730.596 312.469 730.644 311.839 730.923 311.292C731.199 310.75 731.705 310.282 732.596 310.13C733.395 309.993 734.002 310.345 734.416 310.877C734.832 311.412 735.045 312.122 735.045 312.668Z" stroke="#18435F" stroke-width="0.2"/>
<path d="M732.242 315.847C731.701 315.883 731.075 315.692 730.56 315.359C730.044 315.026 729.659 314.563 729.574 314.07C729.4 313.062 730.113 311.716 731.679 311.468C732.146 311.394 732.778 311.4 733.342 311.642C733.902 311.882 734.401 312.356 734.613 313.234C734.802 314.023 734.491 314.652 733.988 315.1C733.481 315.551 732.787 315.811 732.242 315.847Z" stroke="#18435F" stroke-width="0.2"/>
</g>
<path d="M733 316.445L737 320.46C737 320.46 736.548 321.042 735.323 321.798C734.097 322.555 733.065 322.438 733.065 322.438L733 316.445Z" fill="#18435F"/>
<path d="M695.016 270.676L698.889 272.706L700.735 281.143L697.858 282.624L695.016 270.676Z" fill="#4B667A"/>
<path d="M711.876 278.559L707.838 276.443L698.301 284.758L701.263 286.31L711.876 278.559Z" fill="#4B667A"/>
<path d="M375.004 92.2131C352.254 106.161 332.964 115.018 330.5 111C328.036 106.982 343.333 91.6092 366.082 77.6616C388.831 63.714 411.106 58.6361 412.513 59.9704C413.921 61.3047 397.753 78.2655 375.004 92.2131Z" fill="#BBCFDF"/>
<path d="M339.5 98C339.5 98 339.5 98.5 340.5 99.5C341.5 100.5 342 101 342 101C342 101 343 101.5 345.5 102C348 102.5 349.5 102.5 349.5 102.5C349.5 102.5 347 104 344.5 104C342 104 340 103 340 103C340 103 339 102.5 339 100.5C339 98.5 339.5 98 339.5 98Z" fill="white"/>
<ellipse cx="356.5" cy="97.5" rx="1" ry="1.5" fill="white"/>
<ellipse cx="360.5" cy="94.5" rx="1" ry="1.5" fill="white"/>
<ellipse cx="364.5" cy="92.5" rx="1" ry="1.5" fill="white"/>
<ellipse cx="368.5" cy="89.5" rx="1" ry="1.5" fill="white"/>
<ellipse cx="373.5" cy="86.5" rx="1" ry="1.5" fill="white"/>
<ellipse cx="377.5" cy="84.5" rx="1" ry="1.5" fill="white"/>
<ellipse cx="381.5" cy="81.5" rx="1" ry="1.5" fill="white"/>
<ellipse cx="386.5" cy="79.5" rx="1" ry="1.5" fill="white"/>
<path d="M409 48L414.5 45L411.5 61L399 67.5L409 48Z" fill="#4B667A"/>
<path d="M377 90L414 104.5L406.5 109L362 100L377 90Z" fill="#18435F"/>
<path d="M339.5 87C339.5 88.6569 338.157 90 336.5 90C334.843 90 333 87.6569 333 86C333 84.3431 334.343 83 336 83C337.657 83 339.5 85.3431 339.5 87Z" fill="#18435F"/>
<path d="M373 107C373 108.657 371.657 110 370 110C368.343 110 366.5 107.657 366.5 106C366.5 104.343 367.843 103 369.5 103C371.157 103 373 105.343 373 107Z" fill="#18435F"/>
<line x1="305.05" y1="492" x2="305.05" y2="500" stroke="#18435F" stroke-width="0.1"/>
<line x1="439.05" y1="573" x2="439.05" y2="585" stroke="#18435F" stroke-width="0.1"/>
<path d="M622.553 461.5L651 476.916C651 476.916 647.447 483.5 646.5 487.5C645.553 491.5 645.553 495.635 645.553 495.635L645.052 510.5L616 493.795V480.989C616 480.989 617.075 473.162 618.285 470.409C619.496 467.656 622.553 461.5 622.553 461.5Z" fill="#4B667A"/>
<path d="M698.053 416.5L726.5 431.916C726.5 431.916 722.947 438.5 722 442.5C721.053 446.5 721.053 450.635 721.053 450.635L720.552 465.5L691.5 448.795V435.989C691.5 435.989 692.575 428.162 693.785 425.409C694.996 422.656 698.053 416.5 698.053 416.5Z" fill="#4B667A"/>
<path d="M623.5 469.5L644 481.5C642.115 488.958 641.441 492.837 641 499.5L620 487C620 487 620 481.5 621 477.5C622 473.5 623.5 469.5 623.5 469.5Z" fill="white"/>
<path d="M699 424.5L719.5 436.5C717.615 443.958 716.941 447.837 716.5 454.5L695.5 442C695.5 442 695.5 436.5 696.5 432.5C697.5 428.5 699 424.5 699 424.5Z" fill="white"/>
<path d="M623.079 492.574C623.079 493.72 623.186 494.648 622.053 494.648C620.921 494.648 620.003 493.72 620.003 492.574C620.003 491.429 619.896 490.5 621.028 490.5C622.161 490.5 623.079 491.429 623.079 492.574Z" fill="white"/>
<path d="M639.997 502.426C639.997 503.571 640.104 504.5 638.972 504.5C637.839 504.5 636.921 503.571 636.921 502.426C636.921 501.28 636.814 500.352 637.947 500.352C639.079 500.352 639.997 501.28 639.997 502.426Z" fill="white"/>
<line x1="625.5" y1="492.5" x2="625.5" y2="495.5" stroke="black"/>
<line x1="701" y1="447.5" x2="701" y2="450.5" stroke="black"/>
<line x1="627.5" y1="493.5" x2="627.5" y2="496.5" stroke="black"/>
<line x1="703" y1="448.5" x2="703" y2="451.5" stroke="black"/>
<line x1="629.5" y1="494.5" x2="629.5" y2="497.5" stroke="black"/>
<line x1="705" y1="449.5" x2="705" y2="452.5" stroke="black"/>
<line x1="631.5" y1="495.5" x2="631.5" y2="498.5" stroke="black"/>
<line x1="707" y1="450.5" x2="707" y2="453.5" stroke="black"/>
<line x1="633.5" y1="496.5" x2="633.5" y2="499.5" stroke="black"/>
<line x1="709" y1="451.5" x2="709" y2="454.5" stroke="black"/>
<path d="M641 450L669 466L651.11 477.003L622.5 461.502L641 450Z" fill="#BBCFDF"/>
<path d="M716.5 405L744.5 421L726.61 432.003L698 416.502L716.5 405Z" fill="#BBCFDF"/>
<path d="M669 466L669 503L665 504.5C665 504.5 664.5 497.5 658 499C651.5 500.5 650 508.5 650 508.5L645 510.5L645.5 496C645.5 496 645.5 489.5 646.5 486.5C647.5 483.5 651 477 651 477L669 466Z" fill="#457496"/>
<path d="M744.5 421L744.5 458L740.5 459.5C740.5 459.5 740 452.5 733.5 454C727 455.5 725.5 463.5 725.5 463.5L720.5 465.5L721 451C721 451 721 444.5 722 441.5C723 438.5 726.5 432 726.5 432L744.5 421Z" fill="#457496"/>
<path d="M615.5 499.5V493.5L645 510.5V516.5L615.5 499.5Z" fill="#96AEC2"/>
<path d="M691 454.5V448.5L720.5 465.5V471.5L691 454.5Z" fill="#96AEC2"/>
<path d="M645 510.5L650 508.5L649 515.5L645 516.5V510.5Z" fill="#96AEC2"/>
<path d="M720.5 465.5L725.5 463.5L724.5 470.5L720.5 471.5V465.5Z" fill="#96AEC2"/>
<path d="M644 441.5L686.5 416L717 433.5L673 459.5L644 441.5Z" fill="#4B667A"/>
<path d="M719.5 396.5L762 371L792.5 388.5L748.5 414.5L719.5 396.5Z" fill="#4B667A"/>
<path d="M673 459L717 433.5L716.5 462.5L673 488V459Z" fill="#4B667A"/>
<path d="M748.5 414L792.5 388.5L792 417.5L748.5 443V414Z" fill="#4B667A"/>
<path d="M673 487.5L669 489.5V466L644 452V441.5L673 459V487.5Z" fill="#96AEC2"/>
<path d="M748.5 442.5L744.5 444.5V421L719.5 407V396.5L748.5 414V442.5Z" fill="#96AEC2"/>
<path d="M671 493.5L684 486.5V498.5L671 505.5V493.5Z" fill="#96AEC2"/>
<path d="M746.5 448.5L759.5 441.5V453.5L746.5 460.5V448.5Z" fill="#96AEC2"/>
<path d="M669 489.5L711.5 464.5V474.5L709.5 478.5L706 481.5C706 481.5 705 470.5 697 476.5C689 482.5 690 491 690 491L684 494V486.5L671 493.5V505.5L669 503V489.5Z" fill="#457496"/>
<path d="M744.5 444.5L787 419.5V429.5L785 433.5L781.5 436.5C781.5 436.5 780.5 425.5 772.5 431.5C764.5 437.5 765.5 446 765.5 446L759.5 449V441.5L746.5 448.5V460.5L744.5 458V444.5Z" fill="#457496"/>
<path d="M663.922 510.506C662.778 515.879 658.974 519.623 655.426 518.868C651.877 518.112 649.927 513.144 651.071 507.77C652.214 502.397 656.018 498.653 659.567 499.408C663.116 500.164 665.066 505.132 663.922 510.506Z" fill="#18435F"/>
<path d="M739.422 465.506C738.278 470.879 734.474 474.623 730.926 473.868C727.377 473.112 725.427 468.144 726.571 462.77C727.714 457.397 731.518 453.653 735.067 454.408C738.616 455.164 740.566 460.132 739.422 465.506Z" fill="#18435F"/>
<path d="M659.726 509.613C659.329 511.477 658.009 512.777 656.777 512.515C655.546 512.252 654.869 510.528 655.266 508.663C655.663 506.798 656.983 505.499 658.215 505.761C659.446 506.023 660.123 507.748 659.726 509.613Z" fill="white"/>
<path d="M735.226 464.613C734.829 466.477 733.509 467.777 732.277 467.515C731.046 467.252 730.369 465.528 730.766 463.663C731.163 461.798 732.483 460.499 733.715 460.761C734.946 461.023 735.623 462.748 735.226 464.613Z" fill="white"/>
<path d="M704.922 486.965C703.778 492.339 699.974 496.083 696.426 495.327C692.877 494.572 690.927 489.603 692.071 484.23C693.214 478.856 697.018 475.112 700.567 475.868C704.116 476.623 706.066 481.591 704.922 486.965Z" fill="#18435F"/>
<path d="M780.422 441.965C779.278 447.339 775.474 451.083 771.926 450.327C768.377 449.572 766.427 444.603 767.571 439.23C768.714 433.856 772.518 430.112 776.067 430.868C779.616 431.623 781.566 436.591 780.422 441.965Z" fill="#18435F"/>
<path d="M700.964 486.123C700.525 488.186 699.064 489.624 697.701 489.334C696.338 489.044 695.589 487.136 696.028 485.072C696.468 483.008 697.929 481.571 699.292 481.861C700.654 482.151 701.403 484.059 700.964 486.123Z" fill="white"/>
<path d="M776.464 441.123C776.025 443.186 774.564 444.624 773.201 444.334C771.838 444.044 771.089 442.136 771.528 440.072C771.968 438.008 773.429 436.571 774.792 436.861C776.154 437.151 776.903 439.059 776.464 441.123Z" fill="white"/>
<path d="M653.5 481.5L664.5 475.5V486.5L649.5 494.5C649.5 494.5 649.5 490 650.5 487C651.5 484 653.5 481.5 653.5 481.5Z" fill="white"/>
<path d="M729 436.5L740 430.5V441.5L725 449.5C725 449.5 725 445 726 442C727 439 729 436.5 729 436.5Z" fill="white"/>
<path d="M181.5 422L305 500L351.5 474L480.5 548L439 572.5V585.5L497 622.5L0.5 619C0.5 619 68.398 562.603 104 520C139.602 477.397 181.5 422 181.5 422Z" fill="#417DA7"/>
</svg>
