<svg width="391" height="365" viewBox="0 0 391 365" fill="none" xmlns="http://www.w3.org/2000/svg">
<g opacity="0.4">
<path d="M192.429 330.78C160.3 325.789 126.222 306.431 100.545 280.317C74.8146 254.148 58.2877 222.006 59.7814 191.882C62.8223 130.555 122.163 61.2371 216.875 67.2533C245.109 69.0467 281.914 77.6568 311.737 99.193C341.328 120.562 364.348 154.844 365.197 208.936C365.96 257.629 339.419 290.422 304.152 310.021C268.679 329.737 224.776 335.803 192.429 330.78Z" stroke="#96AEC2" stroke-width="10"/>
<path d="M117.805 196.766C117.415 164.254 130.873 127.445 152.383 97.8037C173.937 68.1012 202.904 46.4879 232.861 42.9807C293.847 35.8406 372.021 82.9044 381.747 177.308C384.646 205.45 382.239 243.172 365.93 276.145C349.747 308.862 319.743 337.233 266.536 347.013C218.639 355.816 181.909 335.061 156.749 303.521C131.44 271.794 118.198 229.499 117.805 196.766Z" stroke="#BBCFDF" stroke-width="10"/>
<path d="M343.215 158.804C343.215 191.319 329.316 227.964 307.452 257.345C285.542 286.786 256.318 308.051 226.322 311.198C165.254 317.605 87.6502 269.606 79.059 175.093C76.498 146.918 79.3574 109.228 96.0614 76.4531C112.636 43.9327 142.978 15.9237 196.299 6.78319C244.298 -1.44419 280.776 19.75 305.556 51.5905C330.482 83.6182 343.215 126.07 343.215 158.804Z" stroke="#457496" stroke-width="10"/>
<path d="M175.486 348.952C143.043 351.104 105.558 339.662 74.7945 319.791C43.9671 299.878 20.8152 272.125 15.6891 242.403C5.25319 181.894 48.0096 101.283 141.747 86.4538C169.691 82.0332 207.487 82.3915 241.296 96.8892C274.842 111.274 304.798 139.697 317.449 192.295C328.835 239.644 310.102 277.445 279.972 304.278C249.665 331.27 208.149 346.785 175.486 348.952Z" stroke="#66839E" stroke-width="10"/>
</g>
</svg>
